<?xml version="1.0" standalone="no"?>
<!DOCTYPE svg PUBLIC "-//W3C//DTD SVG 1.1//EN" "http://www.w3.org/Graphics/SVG/1.1/DTD/svg11.dtd" >
<svg xmlns="http://www.w3.org/2000/svg" xmlns:xlink="http://www.w3.org/1999/xlink" version="1.1">
<metadata>
Created by FontForge 20170731 at Wed Jul 13 01:48:35 2022
 By Aleksey,,,
Copyright (c) 2022 by Khurasan. All rights reserved.
</metadata>
<defs>
<font id="Radith" horiz-adv-x="361" >
  <font-face 
    font-family="Radith"
    font-weight="400"
    font-stretch="normal"
    units-per-em="1000"
    panose-1="0 0 0 0 0 0 0 0 0 0"
    ascent="800"
    descent="-200"
    x-height="427"
    cap-height="796.5"
    bbox="-195 -217.565 937.286 817.2"
    underline-thickness="50"
    underline-position="-150"
    unicode-range="U+000D-20AC"
  />
<missing-glyph horiz-adv-x="501" 
d="M411 -200h-318v1003h318v-1003zM168 119v-113h166v113h-166zM301 39h-100v47h100v-47zM234 292v-56h34v23h33v-47h-100v80h-33v-113h166v113h-100zM301 415v-66h-133v-34h166v100h-33zM168 475v-33h66v-37h-66v-33h100v70h66v33h-166zM234 536h-33v36h33v-36zM168 606
v-104h166v34h-66v70h-100zM169 736v-33h65v-37h-66v-34h166v34h-66v37h66v33h-165zM168 -17v-34h70l-70 -47v-33h166v33h-102l70 47h32v34h-166z" />
    <glyph glyph-name=".notdef" horiz-adv-x="501" 
d="M411 -200h-318v1003h318v-1003zM168 119v-113h166v113h-166zM301 39h-100v47h100v-47zM234 292v-56h34v23h33v-47h-100v80h-33v-113h166v113h-100zM301 415v-66h-133v-34h166v100h-33zM168 475v-33h66v-37h-66v-33h100v70h66v33h-166zM234 536h-33v36h33v-36zM168 606
v-104h166v34h-66v70h-100zM169 736v-33h65v-37h-66v-34h166v34h-66v37h66v33h-165zM168 -17v-34h70l-70 -47v-33h166v33h-102l70 47h32v34h-166z" />
    <glyph glyph-name=".null" horiz-adv-x="0" 
 />
    <glyph glyph-name="nonmarkingreturn" unicode="&#xd;" horiz-adv-x="346" 
 />
    <glyph glyph-name="NULL" horiz-adv-x="0" 
 />
    <glyph glyph-name="NULL" horiz-adv-x="0" 
 />
    <glyph glyph-name="space" unicode=" " horiz-adv-x="402" 
 />
    <glyph glyph-name="exclam" unicode="!" horiz-adv-x="198" 
d="M0 58q-3 14 1 32t13.5 30.5t23 15t30.5 -15.5q-14 -14 -21.5 -37t-0.5 -42q-3 -1 -10.5 1t-15.5 5t-14 6t-6 5zM79 168q-5 0 -11 3.5t-11 7.5t-9 8t-4 6q10 64 38.5 141.5t65.5 157.5t78 156t76 136q1 2 5.5 -1.5t10 -8.5t10.5 -10t7 -6l-17.5 -30t-44 -79t-57.5 -111
t-59.5 -127.5t-50 -129t-27.5 -113.5z" />
    <glyph glyph-name="quotedbl" unicode="&#x22;" 
d="M133 640q23 22 30 48t11 53q0 2 5.5 1t13 -3t14 -4t8.5 -2q2 2 1 -7.5t-5 -24.5t-10.5 -31.5t-16.5 -27.5t-22.5 -13.5t-28.5 11.5zM203 640q23 22 30 48t11 53q0 2 5.5 1t13 -3t14 -4t8.5 -2q2 2 1 -7.5t-5 -24.5t-10.5 -31.5t-16.5 -27.5t-22.5 -13.5t-28.5 11.5z" />
    <glyph glyph-name="numbersign" unicode="#" horiz-adv-x="645" 
d="M75 63q3 25 9.5 52t15.5 55q-11 -3 -21 -6t-19 -5q-11 -5 -20 -13t-7 -22q-8 2 -12.5 10t-4.5 18t4 19.5t14 13.5q19 8 38.5 14.5t40.5 11.5q7 21 17 40q-25 -7 -43.5 -12t-32.5 -9q-8 -3 -12 -5t-7 -4t-6 -6t-9 -11q-6 5 -11.5 13.5t-7 16.5t1 15.5t13.5 11.5
q30 10 64 20t71 21q26 60 55.5 116.5t55.5 102.5q1 1 5.5 -2.5t10 -8t10.5 -8.5t7 -4q-14 -25 -30 -54q-14 -25 -31 -58t-35 -71q51 13 102.5 24t102.5 18q23 42 46.5 79.5t44.5 70.5q5 8 12 9t14 -3t13 -10.5t10 -12.5q-8 -3 -11.5 -5t-6.5 -4t-5.5 -5.5t-6.5 -10.5
q-10 -16 -26.5 -42.5t-35.5 -60.5q54 4 100 3q12 -1 20 -9t11.5 -18.5t1.5 -20.5t-9 -15q-3 14 -15.5 19.5t-24.5 6.5q-25 0 -52.5 -2.5t-56.5 -6.5q-19 -30 -36 -68q38 3 72.5 4.5t64.5 2.5q10 0 15 -5.5t6 -13.5t-1 -16.5t-5 -14.5q-8 4 -11.5 6.5t-7 3.5t-8 1h-12.5
q-20 -1 -54.5 -2.5t-77.5 -3.5q-18 -38 -32.5 -75t-22.5 -70q-3 -11 -1.5 -23t15.5 -18q-7 -6 -16.5 -5t-17.5 6t-13.5 14t-3.5 20q6 32 18.5 69.5t29.5 76.5q-45 -4 -93 -10.5t-92 -16.5q-11 -29 -19.5 -56.5t-13.5 -52.5q-2 -11 0.5 -23.5t16.5 -16.5q-6 -6 -15.5 -6
t-18 5t-14.5 13t-4 19zM176 265q-4 -11 -8.5 -21.5t-9.5 -21.5q45 10 93 15.5t95 10.5q9 17 17 32.5t16 31.5q-52 -9 -104.5 -21.5t-98.5 -25.5z" />
    <glyph glyph-name="dollar" unicode="$" horiz-adv-x="383" 
d="M100 -11q-3 1 -7 6t-7.5 11t-5.5 12t-2 8q5 17 9.5 34t10.5 35q-22 4 -41.5 16t-32.5 28.5t-16.5 35.5t6.5 37q3 5 7 8.5t10 5.5q3 1 5.5 -3.5t4.5 -11.5t3 -13.5t3 -9.5q-7 -5 -10 -15q-5 -18 0.5 -27.5t17.5 -14t26.5 -4.5t27.5 3q15 44 34 90t41 93q-23 -1 -46.5 -3.5
t-44 -5.5t-36.5 -6t-23 -4q-1 0 -6 2.5t-9.5 8t-7 14.5t0.5 21q42 49 82.5 77t79.5 49q29 17 56 27.5t51 16.5q17 35 34.5 67t34.5 61q7 12 15 14.5t14.5 -0.5t11 -9.5t4.5 -12.5q-3 -1 -7 -3q-3 -2 -6.5 -4t-5.5 -6q-8 -14 -22 -39.5t-32 -59.5q10 2 19.5 3t15.5 1
q13 -2 20 -7.5t11 -14t5 -18.5l2 -20q0 -7 -5.5 -17t-13 -20.5t-15.5 -20t-12 -14.5q-2 2 -6.5 7.5t-8 12t-6 11.5t-0.5 7q32 30 42 46t3.5 20.5t-26 0t-44.5 -13.5q-17 -32 -35 -69t-36 -77q20 -5 36.5 -12.5t27.5 -19t14.5 -27.5t-2.5 -37q-6 -20 -23.5 -42.5t-41.5 -42.5
t-51.5 -35.5t-55.5 -22.5q-1 -1 -2 -1t-3 -1q-10 -28 -18 -54.5t-13 -50.5zM197 341q14 31 28.5 61t29.5 59q-19 -9 -34.5 -17t-23.5 -13q-11 -6 -27.5 -15.5t-34.5 -20.5t-34.5 -22.5t-25.5 -20.5q-15 -14 -8.5 -13.5t18.5 2.5q22 3 52.5 3.5t59.5 -3.5zM221 312
q-20 -42 -38 -84.5t-34 -84.5q38 17 70 45q23 20 40 41t23 41q6 21 -12.5 30.5t-48.5 11.5z" />
    <glyph glyph-name="percent" unicode="%" horiz-adv-x="423" 
d="M61 394q21 -1 52 17.5t73 64.5l4 5t5 15t-3.5 24t-19.5 34l-2 4l3 2q20 11 49 17q25 5 62.5 5.5t89.5 -10.5q6 -2 16 -5t18 -7.5t11.5 -11t-3.5 -14.5l-26.5 -29.5t-66.5 -75t-86 -102.5t-85.5 -111.5t-66 -102t-26.5 -74.5q-6 0 -11.5 7t-10 15.5t-7 16t-2.5 9.5
q7 27 29.5 66t53.5 83t67.5 90t71 87.5t64.5 75.5t49 54q-35 5 -62 4t-46 -4.5t-31 -8t-17 -7.5q15 -20 18.5 -35.5t2 -26t-5.5 -16t-4 -6.5q-43 -48 -75 -67t-55 -18q-14 1 -27.5 10.5t-24 23.5t-15.5 32t-1 35q6 28 31 57.5t70 46.5q3 2 8.5 -0.5t11.5 -7.5t10.5 -11
t6.5 -12q-45 -14 -70.5 -41.5t-32.5 -56.5q-1 -4 -2.5 -10.5t-1.5 -13t2 -11.5t8 -5zM333 146q-22 -48 -53 -65t-58 -10t-42.5 34.5t-5.5 67.5q8 33 26 51t39.5 23.5t43.5 0.5t37 -19t20 -35.5t-7 -47.5zM208 150q-8 -31 -3.5 -43.5t15.5 -12t26 11.5t28.5 27t23 35t9.5 35
t-12.5 20.5t-29.5 -2.5t-33.5 -25t-23.5 -46z" />
    <glyph glyph-name="ampersand" unicode="&#x26;" horiz-adv-x="704" 
d="M479 560q26 22 49 46q20 20 39.5 45t28.5 49q5 13 2 20.5t-10.5 11.5t-18 5.5t-19.5 1.5q-27 1 -62 -9t-73.5 -28t-76 -41.5t-70 -49.5t-55.5 -52t-32 -48q-20 -39 -17.5 -58.5t18.5 -26t42 -2t54.5 13t55 18.5t43.5 16q4 1 9.5 -1t8.5 -6t3.5 -9t-5.5 -9
q-28 -17 -57 -27.5t-74 -21.5q-4 -1 -23.5 -11.5t-45.5 -29t-56 -43.5t-55 -54t-42 -61t-17 -64q0 -15 2.5 -26.5t10.5 -19.5q26 -25 61.5 -30.5t75 1.5t79.5 23.5t75 37t62 41.5t40 37q-12 48 7 101t72 95q-27 -6 -59 -20.5t-61 -29t-50 -26t-25 -12.5q-9 5 -15 9
q-5 4 -8 8.5t2 9.5q27 34 79 57t111 37.5t117 21t98 9.5q10 1 19 -12t10 -21q-92 -6 -162 -18q12 -15 10 -36q-6 -42 -36.5 -89t-68.5 -90q1 -25 15.5 -44t39 -31t57 -15.5t68.5 1.5q2 0 4.5 -5t4.5 -13t3.5 -16.5t3.5 -14.5q-47 -10 -85 -5.5t-66 19.5t-46.5 39.5
t-25.5 55.5q-23 -23 -44.5 -42t-44 -34t-47 -28t-53.5 -24q-28 -11 -57.5 -16t-57.5 -3.5t-53.5 9.5t-44.5 24q-34 33 -43 67t0 67.5t32 65.5t51.5 60t59 50.5t54.5 37.5q-32 15 -47 34q-16 22 -16 46t9 47t24 43t29 34q29 28 67 56.5t79.5 52.5t84 40.5t80.5 20.5t68.5 -7
t48.5 -41q10 -17 7.5 -35t-10.5 -35q-9 -19 -22 -35t-28.5 -30.5t-32.5 -27.5t-33 -27zM475 250q26 44 48 79.5t26 57.5l-8 -8q-23 -23 -40.5 -57t-25.5 -72z" />
    <glyph glyph-name="quotesingle" unicode="'" horiz-adv-x="289" 
d="M133 640q23 22 30 48t11 53q0 2 5.5 1t13 -3t14 -4t8.5 -2q2 2 1 -7.5t-5 -24.5t-10.5 -31.5t-16.5 -27.5t-22.5 -13.5t-28.5 11.5z" />
    <glyph glyph-name="parenleft" unicode="(" horiz-adv-x="179" 
d="M88 5q-23 14 -39.5 32t-27.5 39q-23 47 -21 105t22 122t53 128.5t75 124.5q31 46 65.5 86.5t67.5 72t63.5 51.5t54.5 26q3 0 5 -3q2 -9 -1.5 -20.5t-1.5 -14.5q-34 -17 -73.5 -52t-80.5 -84q-51 -61 -98 -135.5t-76 -151.5q-31 -77 -38.5 -147.5t19.5 -124.5
q14 -28 37 -48q10 -9 13 -12.5t1 -3.5t-7.5 3t-11.5 7z" />
    <glyph glyph-name="parenright" unicode=")" horiz-adv-x="290" 
d="M234 779q46 -28 67 -72q23 -46 21 -104.5t-22 -122.5q-20 -63 -53 -127.5t-74 -124.5q-32 -47 -66 -87.5t-67.5 -71.5t-64 -51t-54.5 -26q-4 -1 -5 3q-2 9 1.5 20t1.5 14q34 17 73.5 52.5t81.5 83.5q51 62 97 136.5t77 151.5q30 76 37.5 147t-19.5 125q-7 13 -16 25
t-21 23q-10 9 -13 12t-1 3t7.5 -3t11.5 -6z" />
    <glyph glyph-name="asterisk" unicode="*" horiz-adv-x="403" 
d="M212 698l10.5 3.5t16 5.5t16 5.5t10.5 2.5q2 0 14 -9t13 -17q-9 0 -23 -4t-29 -9t-29 -10t-22 -9l45 -63q-8 -5 -14.5 -1t-16.5 7l-27 38l-38 -64l-11 5.5t-13 9.5l26 45q-22 -13 -31 -20q-6 -4 -11 -8q-9 6 -15 11q-5 5 -8.5 9.5t-0.5 6.5q6 5 26.5 18t47.5 26l-30 43
q-3 4 -2 6.5t4.5 3.5t8.5 1t8 -1l32 -45l35 56q8 -4 15.5 -9.5t9.5 -5.5z" />
    <glyph glyph-name="plus" unicode="+" horiz-adv-x="410" 
d="M153 178q-5 -1 -11.5 1t-12.5 5t-10 6t-3 5q11 20 20.5 40t18.5 40q-17 0 -34.5 -0.5t-34.5 -1.5q-2 0 -6.5 5t-9.5 11.5t-9 14t-4 11.5q28 2 55.5 3t54.5 1h7q8 21 15.5 42.5t14.5 42.5q6 2 13 0t13 -5t10 -6t4 -4l-27 -72q15 -2 29.5 -3t29.5 -2q1 0 5.5 -5.5t10 -12
t9 -14t3.5 -12.5q-26 3 -52 4.5t-52 2.5q-11 -23 -22 -47.5t-25 -49.5z" />
    <glyph glyph-name="comma" unicode="," horiz-adv-x="225" 
d="M24 54q22 19 35 46t15 54q1 3 8 1.5t16 -4.5t16.5 -6t9.5 -3q-5 -19 -13 -37q-7 -16 -18 -34t-28 -32q-1 -1 -7.5 1t-14 4.5t-13.5 5t-6 4.5z" />
    <glyph glyph-name="hyphen" unicode="-" horiz-adv-x="376" 
d="M34 315q28 2 55.5 3t54.5 1q28 -1 55 -3l54 -4q1 0 5.5 -5.5t10 -12t9 -14t3.5 -12.5q-112 12 -218 5q-2 0 -6.5 5t-9.5 11.5t-9 14t-4 11.5z" />
    <glyph glyph-name="period" unicode="." horiz-adv-x="170" 
d="M63 117q1 2 7.5 0.5t13.5 -5t13 -7t8 -4.5l-4.5 -7t-9.5 -15.5t-9 -17t-2 -12.5q-2 -5 -9 -3.5t-14 4.5q-11 4 -14 12.5t-0.5 18t8.5 19t12 17.5z" />
    <glyph glyph-name="slash" unicode="/" horiz-adv-x="365" 
d="M27 -34q-3 2 -6.5 9.5t-5.5 16.5t-3 16.5t0 10.5q27 57 65.5 120.5t83 128t93.5 129.5t98 126.5t95.5 117t86.5 101.5q2 2 4 -5t4 -17.5t3.5 -20t3.5 -11.5q0 -1 -30 -35.5t-77.5 -91.5t-106.5 -131.5t-117 -154.5t-109 -160t-82 -149z" />
    <glyph glyph-name="zero" unicode="0" horiz-adv-x="316" 
d="M164 556q4 11 15.5 19.5t27.5 13.5q10 3 21.5 4t22.5 -1q41 -6 61.5 -29t26 -56t-1 -71.5t-19 -76t-28.5 -70.5t-28 -53q-20 -35 -44.5 -65.5t-48.5 -53.5q-38 -35 -74 -47t-61.5 -2t-38 40.5t-3.5 80.5q7 41 29.5 88.5t50.5 93t57.5 85.5t51.5 66q-1 2 -4 7l-6 10
t-5.5 10t-1.5 7zM140 138q23 22 46.5 53t44.5 63q9 14 23.5 45.5t27.5 68.5t21 74.5t4 64.5t-23 37t-61 -7q2 -4 6.5 -16.5t2.5 -14.5q-5 -5 -16 -16.5t-27 -30.5q-30 -35 -66.5 -87t-65.5 -106q-29 -55 -35.5 -96.5t5.5 -61.5t41.5 -14.5t71.5 44.5z" />
    <glyph glyph-name="one" unicode="1" horiz-adv-x="263" 
d="M-36 73q-2 1 -6 5t-7.5 8.5t-5 8.5t1.5 6q6 3 17 8t26.5 11.5t34.5 13.5t39 13q-6 4 -10 7.5t-3 4.5q4 7 21.5 37t42 71t52 87.5t52.5 87.5q26 45 45 76t23 36q5 8 4 12.5t-12 -0.5q-29 -11 -63.5 -32t-64.5 -41.5t-50.5 -35.5l-20.5 -15q-2 2 -7 5t-10 7t-8.5 7t-0.5 5
q5 4 18 13.5t30.5 22t38.5 26.5t43 27q25 14 48 25.5t42 16.5q1 0 10.5 -6t19.5 -15t15.5 -20.5t-1.5 -21.5q-3 -5 -18 -29.5t-36.5 -60.5t-47 -78.5t-49.5 -83t-44 -74.5t-31 -53q26 8 53.5 12t50.5 2q1 0 6 -3t10 -7t8.5 -9.5t3.5 -9.5q-36 3 -81 -7.5t-84.5 -24.5
t-66 -26.5l-26.5 -12.5z" />
    <glyph glyph-name="two" unicode="2" horiz-adv-x="326" 
d="M65 473q1 13 10.5 27t24.5 27t34 23.5t39 17.5q19 6 40.5 7t41 -4.5t35 -18.5t23.5 -35q10 -26 -0.5 -72.5t-52.5 -119.5q-20 -37 -46 -73q-11 -15 -22.5 -30.5t-25.5 -30.5q9 -2 20.5 -2.5t22.5 0t20 2.5t13 4q5 3 8.5 -7t1.5 -21q-6 -8 -19 -9t-28 1t-30.5 6t-25.5 6
q-27 -31 -48.5 -51.5t-38.5 -32.5q-18 -14 -30.5 -19t-21.5 -4q-8 0 -18.5 6.5t-18.5 16t-10.5 21.5t5.5 23q18 27 37.5 42.5t39.5 22t39.5 7t38.5 -2.5l7 8q15 17 28 34.5t26 35.5q14 18 24.5 36t21.5 36q4 6 12.5 22.5t17.5 38t17 44.5t10.5 43t-3 34t-23.5 16
q-33 4 -74 -13q-18 -7 -34.5 -17t-29.5 -22t-20 -24.5t-7 -24.5q-6 0 -11.5 3.5t-10 8t-7 9t-2.5 5.5zM98 174q-26 -4 -51.5 -18.5t-48.5 -48.5q-8 -12 -4.5 -13.5t11.5 2.5t17 9.5t11 7.5q13 10 29 24.5t36 36.5z" />
    <glyph glyph-name="three" unicode="3" horiz-adv-x="330" 
d="M-67 85q31 -3 69.5 9t79.5 33q25 14 55.5 36.5t56.5 48.5t44 53t18 48.5t-22 35t-75 13.5q-2 0 -4.5 5.5t-4 12.5t-2 13.5t1.5 8.5q5 3 20.5 15t34.5 26.5t36.5 31t26.5 29t5 19.5t-29 4q-22 -3 -48 -11.5t-52.5 -21t-50 -28.5t-39.5 -34q-2 2 -2.5 9.5t-0.5 16t1 15.5
t3 9q18 17 42.5 32t50.5 26.5t51 18.5t46 9q15 1 27.5 -4.5t20 -15.5t8.5 -23.5t-5 -28.5q-8 -17 -29.5 -41.5t-63.5 -59.5q41 -12 57 -35t14 -51.5t-19 -60.5t-43 -62t-57.5 -56t-62.5 -42q-38 -20 -75.5 -32.5t-69.5 -10.5z" />
    <glyph glyph-name="four" unicode="4" horiz-adv-x="302" 
d="M389 586q5 4 13.5 -4t14.5 -19.5t6 -23t-12 -13.5q-2 3 -3 7q-2 2 -2.5 4.5t-2.5 0.5q-53 -47 -93.5 -109t-70 -132.5t-47.5 -146t-24 -149.5q-5 0 -9.5 5.5t-9 12t-7 12.5t-2.5 8q6 62 20 116.5t34 102.5q-24 -8 -54 -20.5t-56 -23.5l-62 -28q-5 -3 -10.5 0.5t-10 9.5
t-6.5 13t-1 11q7 16 29.5 43t53.5 58t66.5 64.5t69 64t61 55t43.5 38.5q3 2 9 -3t11 -13q12 17 25 31.5t27 27.5zM51 235q20 8 44 18t46.5 18.5t40 14t25.5 5.5q20 41 41.5 86t47.5 88q-25 -23 -57 -52t-66 -60t-66 -62t-56 -56z" />
    <glyph glyph-name="five" unicode="5" horiz-adv-x="350" 
d="M-10 162q25 -52 55 -70.5t60 -12.5t58 30t49.5 58t35 71.5t14.5 69.5q1 15 -1.5 30.5t-9.5 28t-18.5 21.5t-27.5 12q-18 2 -39 -1.5t-45 -16.5q-8 -4 -15 -1.5t-12 9t-6.5 15t2.5 15.5l41 78q-18 -11 -25.5 -19t-7.5 -10q-4 3 -9.5 10t-10 14t-7.5 13t-1 9q24 29 63.5 45
t84.5 22.5t89.5 6.5t77.5 -3q2 0 6 -5.5t8.5 -13t8 -15t4.5 -13.5q-83 10 -140 3t-93 -19l9 -10l-35 -71q29 1 54.5 -9t44.5 -27.5t30 -42t11 -51.5q-2 -37 -14 -82t-34 -86t-52.5 -71.5t-68.5 -39.5q-25 -6 -49.5 -1.5t-44.5 16t-34.5 27t-18.5 31.5q-1 3 -3 4t-2 5
t3.5 14.5t14.5 32.5z" />
    <glyph glyph-name="six" unicode="6" 
d="M269 253q19 48 13.5 77.5t-28.5 42.5t-60 10.5t-80 -18.5q-3 7 -4 10.5t-3 12.5q-7 -11 -17 -32t-20.5 -48t-19 -56.5t-12.5 -56.5q-7 -48 4 -71.5t32.5 -28t49.5 7.5t56 34.5t52 52.5t37 63zM127 413q49 13 90.5 3.5t67 -37t31.5 -69t-15 -90.5q-14 -26 -33.5 -52
t-43 -48.5t-49.5 -38.5t-53 -21q-35 -3 -59.5 7.5t-39.5 30.5t-21.5 46t-4.5 54q1 26 8.5 56t18 59.5t22.5 55t24 42.5q19 28 44 56.5t54.5 53t63 42.5t68.5 25q4 0 12.5 -9.5t15.5 -20t9 -18t-7 -4.5q-4 1 -7.5 4t-6.5 6t-7 4.5t-9 -0.5q-47 -17 -92 -53t-81 -84z" />
    <glyph glyph-name="seven" unicode="7" horiz-adv-x="310" 
d="M29 485q12 14 35.5 27.5t53 25t61 19.5t59.5 11q18 2 42.5 -1.5t44 -14t28.5 -29t-4 -46.5q-13 -26 -39.5 -56t-59.5 -67q-18 -18 -37 -40l23 1q8 -11 13 -21t9 -24l-86 -1q-40 -47 -78 -103t-66 -124q-7 3 -12 10t-8 15.5t-3.5 17t1.5 14.5q50 97 107 167
q-26 -2 -40 -5.5t-20 -6.5q-7 -4 -7 -8q-7 -2 -12.5 3.5t-9.5 13.5t-6 15.5l-2 7.5q4 10 23 15.5t41.5 8.5t43.5 3.5t29 0.5h1q17 20 33 38t32 35l30 30t33 34.5t26.5 33.5t10.5 28t-14 17.5t-47 1.5q-30 -4 -62.5 -12.5t-62 -20.5t-51 -26t-28.5 -28q-3 1 -8 6t-10 11
t-7.5 12.5t0.5 10.5z" />
    <glyph glyph-name="eight" unicode="8" horiz-adv-x="279" 
d="M221 382q8 10 23.5 28.5t30.5 40t27.5 44t14.5 39.5t-9.5 27t-42.5 7q-24 -3 -51 -12.5t-52 -24.5t-46 -34t-34 -41q-13 -23 -7.5 -38t20.5 -28t34 -26.5t33 -32.5t17.5 -47.5t-12.5 -70.5q-8 -20 -19 -42t-25.5 -42.5t-30.5 -38t-33 -28.5q-21 -14 -35.5 -7.5t-23 23
t-10 38.5t3.5 39q7 26 19.5 56.5t28 58.5t33 51t33.5 35q-16 11 -31.5 26t-26 33t-12 38.5t11.5 42.5t35 42t48.5 36t55 26.5t54.5 14.5q19 2 37.5 -4t33.5 -18t24.5 -30.5t9.5 -41.5q-1 -29 -24.5 -75.5t-80.5 -114.5q-3 3 -7.5 10t-8.5 15t-6.5 15.5t0.5 10.5zM133 337
q-1 -1 1 -3.5t3 -7t-0.5 -10t-8.5 -11.5q-18 -17 -36.5 -47.5t-34.5 -63t-26.5 -61.5t-11 -43t10 -8t37.5 43q9 12 18.5 28.5t19 34t17.5 34.5t13 30q4 12 8.5 24t5.5 23t-2.5 21t-13.5 17z" />
    <glyph glyph-name="nine" unicode="9" horiz-adv-x="290" 
d="M249 386q19 33 34.5 65t19.5 55t-8.5 32.5t-50.5 -2.5q-29 -9 -55.5 -29t-48.5 -45t-39 -53t-26 -53q-5 -13 -10 -35.5t-4 -41t11 -26.5t35 7q15 9 32 23.5t32 28.5t26.5 26.5t15.5 17.5q4 7 12.5 3.5t16.5 -12t13 -18t2 -15.5q-3 -9 -10 -24.5t-16 -35t-19.5 -41.5
t-20.5 -44q-23 -45 -45 -81.5t-37 -46.5q-17 -13 -32.5 -8t-28 19.5t-22 35.5t-15 39.5t-7 32t2.5 14.5q10 2 22.5 -1.5t15.5 -22.5q1 -6 4 -17t6 -22.5t6 -20.5t4 -11q6 -14 18 -6.5t26.5 28t30 49.5t28.5 57t22 50.5t11 30.5q-19 -12 -35.5 -24t-31.5 -22t-28.5 -16
t-25.5 -6q-21 1 -36 16t-20.5 40.5t-0.5 59t24 69.5q13 25 32.5 51.5t43 50t50.5 41.5t56 27q13 4 29 2t31.5 -8t28.5 -14.5t19 -16.5q12 -15 11 -34.5t-9 -40.5t-21 -43.5t-26 -44.5q-17 -3 -31 1t-12 10z" />
    <glyph glyph-name="colon" unicode=":" horiz-adv-x="251" 
d="M122 300q1 2 7.5 0.5t13.5 -5t13 -7t8 -4.5l-4.5 -7t-9.5 -15.5t-9 -17t-2 -12.5q-2 -5 -9 -3.5t-14 4.5q-11 4 -14 12.5t-0.5 18t8.5 19t12 17.5zM85 164q1 2 7.5 0.5t13.5 -5t13 -7t8 -4.5l-4.5 -7t-9.5 -15.5t-9 -17t-2 -12.5q-2 -5 -9 -3.5t-14 4.5q-11 4 -14 12.5
t-0.5 18t8.5 19t12 17.5z" />
    <glyph glyph-name="semicolon" unicode=";" horiz-adv-x="251" 
d="M24 75q22 19 35 46t15 54q1 3 8 1.5t16 -4.5t16.5 -6t9.5 -3q-5 -19 -13 -37q-7 -16 -18 -34t-28 -32q-1 -1 -7.5 1t-14 4.5t-13.5 5t-6 4.5zM122 300q1 2 7.5 0.5t13.5 -5t13 -7t8 -4.5l-4.5 -7t-9.5 -15.5t-9 -17t-2 -12.5q-2 -5 -9 -3.5t-14 4.5q-11 4 -14 12.5
t-0.5 18t8.5 19t12 17.5z" />
    <glyph glyph-name="less" unicode="&#x3c;" horiz-adv-x="475" 
d="M316 192q11 -8 17 -12t13 -15q-26 2 -52 2.5t-51.5 3t-50 8t-47.5 18.5q-14 8 -25.5 16.5t-18.5 16.5t-8.5 14.5t5.5 10.5q38 29 69 49t57 34q40 20 64 25.5t34 6.5q1 0 7.5 -2.5t14.5 -6.5t14 -9.5t5 -11.5h-10.5t-35 -9.5t-64.5 -33t-100 -69.5q-9 -6 -0.5 -10.5
t26 -8.5t40.5 -7t44 -5.5t36 -3.5t17 -1z" />
    <glyph glyph-name="equal" unicode="=" horiz-adv-x="312" 
d="M60 343q20 2 39 2.5t39 -0.5q38 0 77 -6q1 0 4 -4t6.5 -9.5t6 -11.5t2.5 -10q-38 5 -77 5.5t-77 -2.5q-1 0 -4.5 4t-7 10t-6 12t-2.5 10zM54 266q39 7 80 9q20 1 40.5 1.5t40.5 -0.5q1 0 5 -4t8.5 -9t8 -10.5t3.5 -9.5q-79 4 -161 -8q-1 0 -5 3.5t-8 9t-7.5 10.5t-4.5 8z
" />
    <glyph glyph-name="greater" unicode="&#x3e;" horiz-adv-x="408" 
d="M116 336q-10 9 -14.5 14t-9.5 18q25 -7 50.5 -12.5t50 -12.5t47.5 -17.5t43 -27.5q12 -11 22 -21.5t15 -19.5t5 -16t-7 -9q-44 -22 -78 -35.5t-62 -21.5q-43 -13 -67.5 -13.5t-34.5 0.5q-1 0 -7 3.5t-13 9t-11.5 12t-2.5 12.5l10.5 -1.5t36 3t69 19.5t111.5 49q9 4 2 10
t-23.5 13.5t-38.5 15t-42 13.5t-34.5 10t-16.5 5z" />
    <glyph glyph-name="question" unicode="?" horiz-adv-x="423" 
d="M58 548q26 35 61 61t74 44t78.5 28.5t74.5 14.5q51 5 76.5 -6.5t30 -34.5t-11 -54t-46.5 -65q-30 -33 -66.5 -66t-71 -66.5t-62.5 -69.5t-41 -76q-12 -36 -1 -45v-2q-5 -6 -12.5 -3.5t-15 8.5t-13.5 13t-8 12q-11 21 2 49.5t41 61t66 66.5t76 67.5t71 63.5t52 54.5t18 41
t-31 21.5q-18 3 -49.5 -3t-68.5 -19t-74.5 -31.5t-67 -40t-46.5 -44t-12 -43.5q-34 13 -37 25.5t14 37.5zM89 154q1 2 7 0.5t13.5 -4.5t13.5 -6.5t8 -4.5q-8 -16 -14 -29q-5 -11 -9 -22t-2 -16q-20 1 -28 10t-8 21t5.5 25.5t13.5 25.5z" />
    <glyph glyph-name="at" unicode="@" horiz-adv-x="373" 
d="M299 180q-12 -12 -34.5 -31.5t-50.5 -40t-59 -37t-61 -24t-56.5 -1t-45.5 33.5q-14 23 -14 64q0 20 4 42.5t10 47.5q15 53 43 103.5t64 92.5t76 72t78 41q23 7 45.5 4.5t40.5 -14t29.5 -31.5t13.5 -49q1 -24 -10.5 -55t-30 -61.5t-40 -56.5t-39.5 -38q-17 -11 -35.5 -12
t-39.5 18l-6 -10q-14 -25 -30.5 -52t-39.5 -42q-9 -6 -21 -4.5t-24.5 6.5t-23.5 13t-16 14q-2 -14 -3 -26t-2 -23q0 -38 16.5 -47.5t42 -0.5t56 30.5t58 45.5t48.5 44t27 26q3 3 8 -2.5t9.5 -13.5t8.5 -16t4 -10zM226 273q21 19 55 64q32 42 46 76t12 60q-1 20 -7 31.5
t-20 11.5q-23 0 -48.5 -12t-49.5 -29t-44.5 -36t-33.5 -34q15 8 37 8t41 -10.5t28.5 -31t-2.5 -52.5q-10 -23 -14 -46zM122 327q-14 -18 -25.5 -37.5t-19.5 -38.5t-13 -36t-5 -29q0 -17 11.5 -12t28 23t35.5 44.5t35 53t25 48.5t6 30.5t-21 -1t-57 -45.5z" />
    <glyph glyph-name="A" unicode="A" horiz-adv-x="809" 
d="M831 306q-17 -18 -41 -35q-20 -14 -49.5 -29t-68.5 -26q-6 -88 -4.5 -138.5t19.5 -67.5q-3 -4 -9.5 -3.5t-14 5t-14 14t-9.5 24.5q-4 10 -5.5 32t-1.5 45.5t1 43.5t2 27q-11 -3 -28.5 -7t-39 -8.5t-45 -7t-45.5 -2.5q-20 -24 -50.5 -58.5t-67.5 -70t-79 -67t-85 -48.5
t-85.5 -15.5t-80.5 32.5q-15 12 -24.5 22t-15 21t-7.5 24.5t-1 31.5q2 55 24 104.5t59 81.5t87.5 42t109.5 -12q48 -18 91.5 -35t91.5 -22q43 51 90.5 115.5t94 133.5t90 139.5t79.5 135.5q8 3 16.5 0.5t14.5 -7.5t9 -12.5t0 -14.5q-5 -10 -17 -37t-28 -65t-34 -83.5
t-34 -92t-28.5 -90t-16.5 -78.5q27 10 48.5 21.5t37.5 22.5t26.5 20t15.5 13q2 1 11 -3.5t11 -15.5zM641 234q13 78 43.5 162.5t65.5 170.5q-33 -54 -62 -99.5t-58 -88.5t-60 -85.5t-68 -91.5q16 0 36.5 4t41 9t37 10.5t24.5 8.5zM425 182q-36 12 -72.5 28t-72.5 28
t-71 15.5t-67 -9t-61.5 -45.5t-53.5 -94q-18 -58 -12 -96.5t30 -55t64.5 -9.5t93.5 39q37 23 74 52.5t67.5 58.5t52 53t28.5 35z" />
    <glyph glyph-name="B" unicode="B" horiz-adv-x="706" 
d="M1 223q-8 75 19.5 155.5t77.5 154t116 133t135 93.5t135 35.5t115 -41.5q23 -20 32 -41.5t9 -44t-7.5 -44.5t-17.5 -42q-19 -39 -49 -77.5t-58 -69.5t-48.5 -51.5t-20.5 -22.5q27 6 58.5 14.5t57.5 6.5q27 -2 48 -12.5t33 -28.5t12.5 -44.5t-12.5 -61.5q-19 -44 -62 -89
t-97.5 -85t-113.5 -73t-110 -53t-93.5 -28t-70.5 3q-36 14 -50.5 36.5t-0.5 39.5q11 14 27 26.5t29 21.5q36 26 92 53t138 47q3 1 12 -5t14 -14q-34 -7 -68.5 -20.5t-66 -29t-58.5 -32.5t-45 -32q-44 -34 -46 -50t20 -18.5t59 6t71 22.5q60 26 118.5 58t111 70.5t95 83
t70.5 95.5q18 39 8.5 63t-42.5 24q-31 0 -69.5 -11.5t-72.5 -22.5q-21 -7 -33 -6t-19 6.5t-10.5 12.5l-6.5 13q57 53 99.5 96t71.5 80q28 36 46 69.5t22 57.5q8 43 -1.5 69t-30 38.5t-49 14t-58 -3.5t-57 -14t-45.5 -18q-106 -61 -173 -134t-103.5 -145t-46.5 -137.5
t-2 -112t29.5 -67.5t47.5 -5q16 10 36.5 33t41.5 50t38.5 53t27.5 42q39 62 63.5 120t39 103t19.5 72.5l5 27.5q18 -4 27 -12.5t7 -17.5q-20 -130 -79.5 -255t-156.5 -225q-25 -25 -55.5 -25.5t-57.5 15.5t-47 44.5t-24 63.5z" />
    <glyph glyph-name="C" unicode="C" horiz-adv-x="559" 
d="M514 483q11 19 22 49t19 64t10 67.5t-6 61t-28.5 44.5t-56.5 18q-45 1 -97.5 -25t-107.5 -86q-46 -48 -84 -103.5t-67 -114.5q-35 -71 -57 -140.5t-29 -130.5t2 -107.5t35 -71.5q19 -18 48 -15t62 19.5t67.5 41.5t65 51.5t54.5 49t36 34.5q10 9 22 21.5t24.5 25.5
t24.5 25t22 21q2 1 6 -2t9 -8t10 -11t8 -9q-23 -20 -45.5 -41t-44.5 -42q-24 -23 -53.5 -52t-63 -56t-70 -49.5t-74 -31.5t-74 -1t-70.5 40q-28 26 -37.5 74t-1.5 110q7 62 29 132t57 142q29 59 67.5 115t84.5 105q57 60 111 86.5t100 26.5q12 0 27 -3.5t29.5 -9t28 -13
t23.5 -14.5q32 -25 46 -66q14 -45 5 -106t-50 -134q-25 -44 -59.5 -81t-72 -61.5t-74 -35t-66.5 -1t-49 41t-21 89.5q-1 35 10 64t21 46q4 8 13 9t19 -2t19 -9.5t12 -13.5q4 -7 1.5 -9t-7.5 -1.5t-11.5 2t-10.5 1.5q-24 -44 -28 -84.5t8 -68.5t37.5 -40t60 0.5t75.5 53.5
t85 119z" />
    <glyph glyph-name="D" unicode="D" horiz-adv-x="574" 
d="M-5 227q0 10 -1 15q-2 41 3.5 85.5t17.5 89.5t30 89t41 85q23 40 52 76t63.5 64t74.5 46t85 21q33 2 64.5 -10t58.5 -34.5t46.5 -52.5t28.5 -64q24 -82 18 -156t-33 -143q-27 -67 -70 -126.5t-96 -112.5q-24 -23 -54.5 -50t-65.5 -51q-34 -25 -71 -42t-74 -20
q-17 -2 -35.5 4.5t-32.5 19.5t-22.5 30.5t-5.5 37.5q2 11 6 24t12 26q5 9 12 18t14 17q-12 3 -23.5 16t-20.5 30.5t-15 35.5t-7 32zM174 198q38 18 82 27q9 2 23.5 -8t28.5 -43q-13 15 -36 14.5t-49.5 -11.5t-55 -30.5t-53 -42.5t-42 -46t-24 -41.5t1.5 -30t36 -10.5
q37 3 73 20.5t69 40.5q35 24 65 50t53 50q52 53 95 112t70 125q13 34 22.5 76.5t11.5 86t-5 84.5t-25 72.5t-49.5 49t-78.5 14.5q-43 -3 -82 -20.5t-72.5 -45t-62.5 -63t-51 -74.5q-23 -41 -40.5 -85t-29.5 -88t-17.5 -87.5t-3.5 -82.5q2 -48 20.5 -52t47 22t64.5 75.5
t73.5 110t73.5 124t65.5 117.5t48.5 91t23 45q6 -4 11 -12t8 -17.5t3.5 -18.5t-2.5 -15q-10 -20 -27.5 -53t-40 -74t-48.5 -87t-53.5 -91.5t-55.5 -88t-55 -77.5q-2 -4 -5 -6.5t-5 -5.5z" />
    <glyph glyph-name="E" unicode="E" horiz-adv-x="598" 
d="M454 544l15.5 14.5t35.5 36.5t39.5 49t29.5 53q4 14 1 22.5t-11 13t-18 6t-19 1.5q-27 1 -62.5 -10t-74 -30.5t-77 -45t-71 -53.5t-56 -56.5t-32.5 -52.5q-20 -43 -18 -65t18.5 -28.5t43 -2t55 14.5t55.5 21t44 18q5 1 10.5 -1.5t8.5 -7.5t3 -10.5t-6 -9.5
q-28 -19 -57 -30.5t-75 -22.5q-4 -1 -23.5 -13t-45.5 -32t-56 -47.5t-55 -59t-42 -66.5t-17 -70q-2 -37 11.5 -61t48.5 -33q52 -14 110.5 4t115 54.5t106 86t83.5 99t48 92.5t0 67q5 3 10.5 -0.5t10.5 -11t8 -18t2 -20.5q-8 -55 -41.5 -112t-80.5 -107.5t-101 -89.5
t-102 -58q-57 -24 -115 -22.5t-99 37.5q-35 36 -43.5 73.5t0.5 74t32.5 71.5t52 65.5t59.5 55t55 41.5q-33 14 -47 38q-8 11 -10.5 24t-0.5 27q0 8 2 17t5 18q19 52 64 103.5t107 93.5q41 28 88.5 50t91 30t79 -1.5t52.5 -42.5q15 -30 4 -60t-33 -58t-48.5 -51t-43.5 -39z
" />
    <glyph glyph-name="F" unicode="F" horiz-adv-x="622" 
d="M467 701q0 -1 -10 -28t-26.5 -69t-36 -92.5t-38 -98.5t-34.5 -87t-24 -58q25 -9 62 -5t75.5 19t71.5 40t51 58q3 1 6 -4t6 -12.5t6 -15.5t5 -12q-11 -23 -32.5 -41t-49 -30.5t-58.5 -20.5t-60.5 -11.5t-55 -1.5t-41.5 8q-7 -14 -18 -39.5t-25 -56t-29.5 -62t-31 -58
t-30 -45t-25.5 -21.5q-19 -6 -36.5 -0.5t-32.5 20.5t-26 37t-18 48q-11 46 -8.5 102t17 112t40.5 106.5t61 86.5q2 4 10.5 4.5t18 -2.5t16.5 -10.5t6 -19.5q-1 -18 1.5 -41t11.5 -45.5t25.5 -41.5t42.5 -30q47 103 88.5 210.5t82.5 213.5q-21 -2 -44 -5t-48 -9
q-33 -6 -70.5 -15t-81.5 -23q-3 -1 -8 5t-11 14q-2 3 -3.5 6t-3.5 5q-2 3 -4 5l-2 8q42 14 80.5 24.5t73.5 18.5q40 8 75.5 13.5t64.5 7.5t63 3.5t68 -2.5q35 -3 68 -14t60 -32q15 -12 24 -24q13 -14 22.5 -36t13 -45.5t0 -45.5t-16.5 -36q-5 3 -7 11.5t-3 18t-0.5 17
t1.5 7.5q1 5 6 13q8 17 2 32t-20.5 27.5t-35 22.5t-41 17t-38 11t-25.5 5q-32 4 -63.5 2.5t-59.5 -3.5q6 -4 6 -10zM243 255q-20 10 -39 28t-33 40.5t-22.5 47.5t-8.5 49q-23 -24 -41.5 -64.5t-32 -87.5t-19.5 -95t-3 -86q3 -52 11.5 -75.5t20.5 -25.5t28 14.5t34 45.5
q29 48 55 102t50 107z" />
    <glyph glyph-name="G" unicode="G" horiz-adv-x="506" 
d="M190 391q12 16 43 30t71 24.5t84.5 15t84 2t68.5 -14t39 -34.5q1 -2 3 -10.5t3.5 -18t2 -16.5t-1.5 -7q-2 24 -31.5 37t-74.5 17h1q-3 1 -15.5 -16t-29 -46.5t-35.5 -69t-35 -83.5t-26.5 -89.5t-11 -87.5t12 -77.5t42.5 -59.5q11 -9 3 -8t-20 6q-29 13 -44.5 39.5
t-21.5 61t-4 72.5t8.5 74t15.5 66t17 48q-11 -10 -30.5 -33t-46 -50t-57 -53t-61.5 -41q-36 -17 -64.5 -12t-48 25.5t-29.5 54t-7 73.5q2 43 24 101.5t56 120.5t77 122.5t88.5 107.5t90 74.5t81.5 24.5q24 -2 43.5 -12t32 -27t17.5 -41t0 -53q-5 -25 -22.5 -55t-37.5 -56
q-4 1 -10 4t-11 7.5t-7.5 10t0.5 10.5q17 20 30 45.5t22 47.5q7 19 9 35.5t-3 28.5t-17 17t-32 2q-39 -8 -81.5 -38t-84.5 -73.5t-80.5 -97t-69.5 -108.5t-52 -108t-27 -96q-5 -36 -3 -62.5t11.5 -41.5t27.5 -17t46 12q52 26 132.5 107t177.5 215q-37 -2 -74.5 -8.5t-69 -17
t-53 -25t-26.5 -31.5q-7 4 -9.5 12.5t-3 17.5t0.5 16.5t3 9.5z" />
    <glyph glyph-name="H" unicode="H" horiz-adv-x="650" 
d="M508 -50q-14 -10 -32 -19t-36 -15t-33.5 -6t-25.5 8q-15 12 -22 33t-7 48.5t6 59.5t17 64q-28 -7 -53 -8.5t-48 4.5t-44 21.5t-42 43.5q-15 -25 -33 -53t-38.5 -54.5t-43 -49t-44.5 -36.5q-15 -11 -27.5 -8t-21 13.5t-13 24.5t-3.5 26q1 24 8.5 52t18.5 56t24 54t25 46
q15 25 34.5 51.5t44.5 54.5q7 8 15.5 11t15.5 1t11.5 -7.5t4.5 -13.5q-2 -15 -1.5 -32.5t2.5 -33t5 -28.5t6 -19q21 37 38.5 71.5t36.5 72.5q8 18 22.5 53.5t28 76t22 78.5t4.5 60t-24 22t-64 -36q-29 -24 -51.5 -52t-38.5 -52.5t-25 -41l-9 -16.5l-1 1l-1 -1l-8 20
q-3 8 -5 15t0 11q23 42 53.5 81.5t66.5 68.5q20 17 45.5 29t48 12.5t38 -15t15.5 -53.5q1 -51 -16 -109.5t-42.5 -117t-55.5 -113.5t-56 -99q25 -26 49 -38.5t47.5 -15.5t47.5 2t48 15q0 2 1 3q23 60 53 123t66 125t77.5 120t86.5 108q24 27 53 52t59 43.5t57.5 27.5t48.5 4
t33 -27t10 -66q-3 -33 -24 -65q-2 0 -6 4.5t-8 11t-7 13t-2 11.5q19 43 19 63.5t-12.5 25t-34.5 -4t-47 -23.5q-54 -34 -103.5 -89t-92 -119t-78 -130t-60.5 -121q-5 -9 -13.5 -28.5t-19.5 -45.5q48 20 88.5 43.5t70.5 59.5q2 -3 3.5 -12.5t1.5 -19t-0.5 -17.5t-2.5 -9
q-10 -10 -28 -23t-41.5 -27t-52.5 -27.5t-61 -22.5q-11 -30 -20.5 -60t-14 -56t-3.5 -45t11 -27t30.5 -1.5t53.5 31.5zM166 218q-14 26 -21 53t-10 49q-14 -9 -32.5 -34t-37.5 -57.5t-37 -68.5t-30 -67t-16 -53.5t4 -27.5t29.5 11t61.5 61q24 30 48 67.5t41 66.5z" />
    <glyph glyph-name="I" unicode="I" horiz-adv-x="432" 
d="M59 613q30 42 73 63t92 27.5t100.5 1.5t98.5 -15q48 50 92.5 75t80.5 31.5t61.5 -2t36 -24.5t3.5 -36.5t-36 -38.5t-82.5 -30.5t-135.5 -11.5q-38 -42 -76.5 -102.5t-76 -136.5t-72 -165t-63.5 -188q51 10 100 14t86.5 -0.5t58.5 -17.5t16 -36q-10 11 -47 15.5t-86.5 2
t-104.5 -12t-102.5 -24t-80 -35.5t-35.5 -46q-6 1 -14 5.5t-14.5 10.5t-11 12.5t-3.5 9.5q10 14 29.5 27.5t45.5 25.5t57 21.5t64 17.5l-2 1q23 93 56 183t71.5 169t79.5 144.5t79 109.5q-59 15 -103.5 16t-78.5 -7q-15 -3 -37 -12.5t-41.5 -23t-31 -29.5t-4.5 -32
q4 -12 3.5 -15t-5.5 0t-13.5 11t-18.5 19q-8 5 -12.5 11t4.5 17zM482 689q53 -6 91.5 8t67.5 33q26 17 28.5 26.5t-9.5 11.5t-35.5 -2.5t-50 -14.5t-51.5 -26t-41 -36z" />
    <glyph glyph-name="J" unicode="J" horiz-adv-x="522" 
d="M0 375q0 43 9.5 74.5t24 54.5t32 39.5t35.5 28.5q40 28 92 34.5t118 10.5q17 1 36.5 1.5t46.5 4t65 11t92 22.5q12 45 30 70.5t36.5 35.5t34.5 7.5t25 -13.5t8 -29t-17 -38q-14 -17 -37.5 -36t-60.5 -37q-25 -60 -47.5 -123.5t-45 -126.5t-46.5 -124.5t-52 -117.5
q-22 -45 -48 -76t-51 -60q-45 -41 -87 -57t-77 -12.5t-61.5 23t-40 50t-13 68.5t19 77.5t57.5 79t101 71.5q17 10 45 20t58 13t56 -6t39 -37q-41 10 -85 5t-78 -26q-74 -47 -115.5 -96.5t-55 -91.5t-2.5 -72t42 -37.5t79.5 12.5t109.5 77q31 29 60.5 76.5t60.5 115t64 156
t71 201.5q-39 -8 -94 -10.5t-113 -7t-113.5 -16.5t-96 -39t-60 -73.5t-5.5 -120.5q3 -17 -3.5 -15.5t-16.5 12t-18 25t-8 22.5zM596 674q1 3 3 3.5t3 1.5q30 15 42 33t9.5 25t-18 -5.5t-39.5 -57.5z" />
    <glyph glyph-name="K" unicode="K" horiz-adv-x="648" 
d="M768 522q6 7 15 22.5t18 34t15.5 37.5t6.5 32.5t-8 18.5t-28 -3q-23 -10 -53.5 -31t-65 -49t-71.5 -61t-73 -66.5t-70 -66t-62 -59.5q-1 -1 -1.5 -1t-1.5 -2q-8 -8 -7.5 -7t7.5 7t17.5 14t22.5 13q16 6 28 -6.5t20 -29.5q2 -3 1.5 -6.5t-2.5 -15.5q-3 -18 -9 -41
q-5 -22 -10.5 -47.5t-10.5 -52.5t-8.5 -53.5t-4.5 -49.5q-2 -36 6.5 -50t22.5 -14t31.5 11.5t35.5 26.5t33.5 31t24.5 25q1 1 5.5 -4t9 -11t8 -12t2.5 -6q-14 -14 -30 -30.5t-34 -31.5t-36.5 -25t-35.5 -11q-12 -1 -25.5 5t-25 17t-20 26t-9.5 33q-3 24 -0.5 58.5t8.5 70.5
t14 70t15 58q5 15 5.5 27.5t-14.5 4.5q-5 -3 -14 -9t-19 -13.5t-20 -14.5t-17 -11q-24 -67 -53 -117.5t-60.5 -86.5t-63 -59t-60.5 -33q-40 -15 -68 -8q-17 3 -34 15t-29.5 31t-17.5 42.5t2 48.5q2 5 7 1.5t11 -11.5q7 -9 16 -21q-11 -31 -7 -46.5t30 -18.5q27 -5 63 8
q49 18 104 72t102 153q-6 5 -15 17.5t-12 17.5l3 2q5 5 21 19.5t39 36.5q10 27 18 61q23 87 33 149t11 107q1 10 0.5 27t-3 34t-7.5 31t-14 19q-29 14 -65.5 -4.5t-74.5 -55.5q-39 -36 -75 -84t-60 -93q-25 -45 -35 -80q-4 1 -9.5 8t-10 14.5t-7 15t-1.5 10.5q10 29 32 69
q13 24 29 48.5t34 48.5t37 46t39 40q43 40 83.5 53t72 -2.5t50 -59.5t17.5 -117q-1 -42 -9 -98.5t-28 -131.5q47 45 103 96.5t110 97t100.5 77.5t75.5 37q16 3 33 -5.5t29 -25.5t16 -41t-5 -52q-9 -25 -22 -46.5t-21 -30.5l-6 0.5t-13.5 3.5t-13.5 7.5t-7 11.5z" />
    <glyph glyph-name="L" unicode="L" horiz-adv-x="493" 
d="M62 475q20 -10 48 -8.5t57 9t56.5 17.5t46.5 18q29 58 60 110.5t74 91.5q49 45 88.5 63t65 16t35 -22t-1 -50.5t-43.5 -69t-91 -78.5q-38 -26 -80 -49t-81 -42q-25 -46 -46.5 -98.5t-45.5 -106t-55 -103.5t-76 -90q16 -1 37 -15.5t47.5 -31t57.5 -30t66 -14.5t74.5 16.5
t82.5 63.5q1 -2 5.5 -7t9 -11t7.5 -11t2 -6q-44 -51 -85.5 -68t-80 -13.5t-73.5 20.5t-66 34.5t-58 29t-50 2.5q-29 -25 -48.5 -36.5t-31.5 -15.5q-14 -5 -22 -3q-4 1 -11.5 6.5t-13.5 12.5t-8.5 14t3.5 13q55 32 92.5 59.5t64 55t45.5 57t36.5 66t37 81.5t47.5 103
q-30 -13 -58.5 -21.5t-42.5 -11.5q-18 -4 -32.5 -3t-25.5 6q-15 6 -25.5 17t-14 20.5t1 14.5t19.5 -2zM328 538q45 25 87.5 54t74.5 55q5 4 17 14.5t24.5 23.5t23.5 26t14 23t-4 14t-31 -1q-34 -8 -65 -29t-57 -50t-47.5 -63t-36.5 -67z" />
    <glyph glyph-name="M" unicode="M" horiz-adv-x="957" 
d="M40 502q20 29 48 62t68 70q31 27 65.5 46.5t63.5 27.5q12 3 26 1t27 -8t23 -15.5t13 -21.5q6 -15 -1 -37q-5 -21 -18 -49q-28 -60 -67 -120t-71 -117q-17 -29 -32.5 -57t-27.5 -53t-19.5 -45t-6.5 -32q31 49 72.5 118.5t91 144.5t105 147.5t113.5 127.5q30 29 63 51.5
t63 30.5q12 3 26.5 -1t27.5 -13.5t22 -23t10 -29.5q2 -17 -4.5 -41t-24.5 -57q-9 -18 -19.5 -39.5t-23.5 -44.5q-22 -43 -47 -91.5t-49 -98t-45 -98.5t-35 -93q-6 -19 -13 -45.5t-8.5 -44.5t8 -19t36.5 31q14 17 33 42.5t43 60.5l32.5 47.5t42.5 59.5t49 62.5t52.5 57
t52.5 41t49 16.5q9 0 20.5 -6t21 -16.5t15.5 -24t6 -28.5q-1 -26 -10.5 -62t-24.5 -72q-25 -60 -40 -108.5t-23 -84.5q-9 -49 -7.5 -77t7.5 -34q2 0 1 -2t-3 0q-2 1 -7 5.5t-11 9.5t-10.5 10t-4.5 7q-5 14 -4 43.5t12 77.5q8 35 22 79.5t37 99.5q15 35 24 70.5t10 61.5
q0 27 -12.5 26t-29.5 -12q-36 -24 -68 -55.5t-60.5 -67t-55 -74t-51.5 -75.5q-25 -36 -44 -61.5t-34 -42.5t-25.5 -27.5t-18.5 -16.5q-11 -9 -21.5 -4.5t-19 16t-13 25.5t-4.5 24q2 58 23 124t50 131.5t61.5 127t58.5 110.5q13 23 24 44t20 41q16 32 22 55t5 40
q-1 20 -14 21.5t-33.5 -9.5t-45 -31.5t-49.5 -44.5q-53 -50 -99.5 -104t-88.5 -112.5t-81.5 -120.5t-78.5 -127q-4 -7 -14.5 -23t-23 -37t-26.5 -44.5t-25 -45t-18.5 -38t-7.5 -23.5q0 -10 -3 -11q-5 -2 -13.5 3t-16.5 12q-9 6 -9 22.5t4 35.5t10 36.5t9 25.5
q27 76 59 137.5t66 118t67.5 112.5t63.5 120q7 14 11.5 25.5t6.5 22.5q7 27 1 31.5t-28 -0.5q-29 -8 -63.5 -28t-63.5 -46q-46 -42 -76 -78.5t-49 -66.5q-18 -29 -23.5 -53t-4 -42.5t6 -30.5t6.5 -17.5t-1 -3t-17 13.5q-10 6 -20 14t-15 13q-8 10 -3.5 31t13.5 44t19.5 43
t15.5 27z" />
    <glyph glyph-name="N" unicode="N" horiz-adv-x="697" 
d="M84 261q-5 -14 -9 -32q-4 -15 -9 -34.5t-10 -42.5q-3 -10 -6 -32.5t-5 -48t-1 -50t6 -38.5t15 -13.5t27 24.5q16 23 32.5 60t36.5 82q8 23 18.5 46t21.5 48l11 24q16 36 36.5 81t43.5 94t49 98t53.5 93t56.5 80t59 59q4 2 8.5 -2t9.5 -11q5 -8 10 -18q-24 -54 -52 -123
t-53.5 -144t-45.5 -151t-27 -144q-2 -18 -3.5 -52.5t3 -68.5t18 -58t42.5 -21q17 2 34 18t33 40t30 53t26 57t21 51.5t14 37.5l8.5 22t22 55.5t30 74t32.5 77.5t30 66t22 40q1 2 7 -3.5t14 -10.5q3 -4 5.5 -7t3.5 -3l2 -2q-6 -5 -19.5 -31.5t-30 -64t-34.5 -80t-32.5 -78.5
t-24 -60t-9.5 -25v-1q-5 -15 -15 -41.5t-23.5 -57.5t-29.5 -61.5t-34 -53.5t-37 -35.5t-38 -5.5q-41 13 -63 45.5t-30.5 78t-5 100t15 111.5t27.5 114t33 107t32.5 89.5t24.5 62.5q-30 -41 -59 -91t-57 -105t-54.5 -112.5t-51.5 -112.5l-10 -23q-12 -25 -22 -48.5t-21 -45.5
q-16 -40 -31 -74t-29 -57.5t-28.5 -34.5t-30.5 -6q-28 10 -42 34t-17.5 55.5t0.5 68t12 71.5t17 65.5t15 50.5q1 3 5 1t9.5 -6t10 -8.5t6.5 -5.5z" />
    <glyph glyph-name="O" unicode="O" horiz-adv-x="469" 
d="M69 282q-11 -24 -26 -64t-26 -82.5t-14.5 -81t7.5 -59t40 -16.5t83 46q45 35 96 93.5t97 127t82 139.5t53 130q8 30 14 65t1.5 64t-23.5 46.5t-61 12.5q-43 -7 -82.5 -33t-70.5 -58q5 0 7 1l5.5 -4.5t12 -10.5t11.5 -12t5 -9q-26 0 -54 -29t-53.5 -68t-45.5 -78.5
t-30 -61.5q-2 -10 -4 -25.5t-1.5 -31t4.5 -28t14 -17.5q24 -12 49 -11.5t37 4.5q2 0 7.5 -4t11.5 -9t10.5 -10.5t5.5 -9.5q-24 -6 -49.5 -4t-47.5 12.5t-39.5 29.5t-25.5 46zM498 642q9 -27 7.5 -65.5t-16.5 -90.5q-11 -41 -31 -86.5t-46.5 -92.5t-57.5 -93t-64 -87.5
t-66.5 -76.5t-64.5 -59q-44 -35 -81 -41.5t-61.5 10t-35.5 55t-4 94.5q4 34 14 69.5t23 70t27 66t27 55.5q12 76 51 143q21 40 47 75t54 64q35 38 73 59t73 26q44 5 80 -22t52 -73z" />
    <glyph glyph-name="P" unicode="P" horiz-adv-x="763" 
d="M167 349q10 23 30 50.5t42.5 55t46 51.5t41.5 39q26 23 48 35.5t39 12.5q34 0 46 -20.5t10 -52t-14.5 -70t-28 -75t-31.5 -66.5t-24 -44q-12 -20 -24 -40.5t-25 -40.5q34 -10 70.5 -10t72 8t68.5 24t60 38q48 39 77 88.5t41 101.5t7.5 104t-24 94.5t-53.5 72.5t-80.5 40
t-105 -5t-127.5 -62q-34 -23 -68 -54q-40 -34 -75.5 -76t-67.5 -91q-32 -51 -54 -95.5t-36 -83.5q-17 -39 -25 -72t-13 -61q-7 -47 -1.5 -93t24 -73t51.5 -27.5t82 44.5q20 18 46 51t55 74q11 19 23 37t23 37q-2 4 3 4q14 23 27 46.5t27 46.5q8 15 24.5 49.5t33 74.5t28 77
t8.5 57t-25.5 14.5t-72.5 -50.5q-29 -25 -57.5 -56.5t-52.5 -62.5q-20 -27 -34 -49.5t-17 -34.5q-2 1 -5.5 6.5t-6.5 12.5t-4.5 12.5t-1.5 6.5zM313 163q-21 -34 -42 -65.5t-41 -58t-37.5 -47t-31.5 -32.5q-41 -35 -78.5 -36.5t-66.5 20.5t-47 61t-18 86q-1 19 1 38t4 35
q5 29 14 63.5t24 74.5q17 40 40 85.5t55 97.5q32 51 68.5 94.5t78.5 78.5q41 37 84.5 64t86.5 44q57 22 109 17.5t95 -28t75.5 -63.5t50.5 -89.5t19.5 -106t-17.5 -112.5q-17 -50 -47 -94.5t-72 -77.5q-25 -21 -66 -39t-85 -27.5t-86 -6.5t-70 24z" />
    <glyph glyph-name="Q" unicode="Q" horiz-adv-x="515" 
d="M348 479q5 4 12.5 2t14 -6.5t10 -9t2.5 -5.5q-27 -35 -50.5 -80t-41 -94.5t-29 -99.5t-15.5 -95q50 49 95 112t81 130.5t61 134t35 123t2.5 98t-36 58.5t-81 3.5t-131.5 -65.5q-19 -12 -45 -33.5t-53 -48t-53 -57.5t-45.5 -62t-30.5 -61t-8 -55q10 27 23.5 40.5t26.5 16
t23 -4.5t14 -20q-15 3 -25.5 -4t-17.5 -19t-11.5 -26t-8.5 -24q36 0 77.5 19.5t81 45t72.5 50.5t51 37zM59 305q-12 -48 -17 -109.5t3 -121.5q8 -50 19.5 -72.5t31 -22.5t48 20.5t70.5 55.5q-1 72 16 136t36.5 111.5t33.5 74.5t8 27q-39 -25 -70.5 -45.5t-60.5 -34t-57 -19
t-61 -0.5zM555 612q-1 -71 -30.5 -151.5t-74.5 -158t-98 -147t-101 -119.5q1 -12 3 -26t6.5 -25.5t13 -18.5t23.5 -5q1 0 4.5 -3.5t8 -7t8 -7l3.5 -3.5l-12 -2t-29 3t-34 20.5t-26 49.5q-48 -40 -85 -50t-63.5 3t-43 45t-23 75.5t-4 95t14.5 103.5q4 11 7 20t6 17
q-18 28 -18.5 59t10 62.5t30 62.5t42.5 59t47.5 51.5t45.5 40.5q36 30 77.5 56.5t82 43.5t78 21.5t66.5 -10t46.5 -51.5t18.5 -103z" />
    <glyph glyph-name="R" unicode="R" horiz-adv-x="775" 
d="M-19 133q3 35 12.5 77.5t26.5 90.5q17 46 40.5 95t53.5 96t66 90.5t79 80.5q75 64 154 93t149 29q35 0 66.5 -6t56.5 -20q25 -12 45.5 -33t33.5 -47.5t16 -55.5t-6 -58q-13 -41 -36 -80q-35 -56 -82 -92.5t-102.5 -57.5t-116.5 -28t-122 -5q-7 -76 11.5 -135t53 -98.5
t80 -58.5t93 -15.5t91 31t74.5 80.5q3 -4 7 -11.5t6.5 -15t3.5 -14.5t-2 -10q-41 -57 -84 -83.5t-85 -29t-81.5 15t-73.5 48t-61.5 71t-46 84.5t-26 87t-1.5 79q-26 -52 -54 -104.5t-56 -97.5q-18 -29 -36 -53.5t-34.5 -42t-31 -26.5t-26.5 -7t-18 9q-11 9 -18.5 25
t-12 34.5t-6 36.5t-0.5 32zM282 329q58 -5 120 4t120.5 33.5t109.5 64t88 95.5q18 27 28.5 55t10 53.5t-14.5 48t-46 39.5q-49 25 -121 25q-69 -1 -146 -29.5t-152 -91.5q-42 -36 -78.5 -79.5t-66 -90.5t-53 -95t-39.5 -94q-17 -47 -26 -88.5t-12 -76.5q-2 -37 3 -61
q6 -6 14 -7q17 -3 40.5 18.5t49.5 58t54 84.5t54 99t49.5 100t41 87t28 62l10.5 24l4 -2l2 2q4 -10 7 -20q2 -8 3.5 -16t-0.5 -12q-11 -23 -34 -75t-54 -114z" />
    <glyph glyph-name="S" unicode="S" horiz-adv-x="520" 
d="M378 416l22.5 8.5t57.5 25t78.5 41.5t86.5 57q51 38 77.5 74t34.5 66q5 23 -4 33t-30 19q-31 13 -76.5 12.5t-104.5 -17.5q-64 -19 -130.5 -52t-127.5 -75q-60 -42 -109.5 -89t-79.5 -94q-5 -8 -16.5 -27.5t-21.5 -41.5t-13.5 -41t7.5 -26q9 -6 22 -9q20 -5 51.5 -5
t67.5 2q25 1 51.5 1.5t50.5 -1t44.5 -4.5t34.5 -10q12 -6 20.5 -19t12.5 -29t3.5 -32t-6.5 -28q-19 -38 -60.5 -73.5t-90.5 -62.5q-30 -17 -61 -29.5t-58 -20.5t-49 -10.5t-34 1.5q-5 2 -11.5 16t-10.5 24q-2 2 -2 3.5t-1 2.5l-1 2l6 3q1 -2 7 -6q20 -9 70 5q50 12 110 43
q22 11 46.5 26.5t47.5 33.5t43 39t32 43q8 14 0.5 21t-34.5 12q-29 6 -69 6t-78 -2q-37 -1 -69 -1.5t-52 4.5q-7 2 -13 4.5t-11 5.5q-17 10 -22 31q-3 12 -7 20t-6 18q-5 20 1 45q5 23 18 50t33 58q30 48 80 95t111 89q61 43 128 76t131 53q60 17 107 17.5t79 -13.5
q31 -14 45 -39q4 -8 8.5 -21t7 -27.5t3.5 -27.5t-1 -21q-8 -31 -35.5 -67.5t-79.5 -75.5q-25 -19 -50.5 -35.5t-49.5 -30.5q-36 -20 -66.5 -34t-50.5 -22q-13 -5 -26 8t-18 25z" />
    <glyph glyph-name="T" unicode="T" horiz-adv-x="333" 
d="M894 761q-130 -1 -238 -9t-199 -19q-21 -22 -48.5 -53t-59 -68.5t-65.5 -81.5t-67 -92q16 -44 18.5 -89t-2.5 -91q-5 -42 -23 -89.5t-44 -90.5q-35 -61 -72 -101q-18 -20 -34 -30.5t-28 -8.5q-5 0 -9 4q-23 15 -28.5 47t-1 68t15 70.5t18.5 55.5q30 76 72.5 149.5
t90.5 141.5q-10 25 -28.5 47.5t-41 42.5t-47 36.5t-46.5 28.5l-12 6l-12 38q44 18 107 36q54 16 134.5 33.5t190.5 32.5l36 37q3 3 8.5 -1t10.5 -10q6 -7 12 -18v-1q78 8 168.5 14t194.5 7q2 0 6.5 -5t9.5 -11.5t9 -14t4 -11.5zM70 17q17 19 35.5 44.5t35.5 54.5
q25 43 43 89t22 87q4 32 4 64t-6 64q-44 -65 -83 -133.5t-68 -140.5q-4 -12 -12 -34t-15 -45.5t-11 -45t-1 -32t16 -6t40 33.5zM198 486q51 71 100 131.5t90 105.5q-131 -20 -213.5 -43t-120.5 -36q27 -18 46.5 -35t35.5 -35.5t30 -40t30 -49.5z" />
    <glyph glyph-name="U" unicode="U" horiz-adv-x="684" 
d="M77 165l-6 5t-13.5 11t-15 13t-10.5 12q-7 9 -14.5 23.5t-14 34t-9.5 43t-1 50.5q2 26 11 55.5t27 62t47.5 67t72.5 71.5q75 46 120.5 49.5t64.5 -27t12.5 -89.5t-35.5 -137q-15 -42 -32.5 -83t-34 -79t-31 -72t-22.5 -62q-14 -48 -16 -74t5.5 -36t22 -6t32 17t36.5 31.5
t35 38.5q46 49 93 105t92.5 114t88 116t79.5 109.5t67 95t51 73.5q13 20 22 32.5t13 17.5l34 -26l-17.5 -27.5t-46 -73.5t-63 -107t-68 -128t-62.5 -136t-46 -132t-18.5 -116t20.5 -87l-7 -4q-2 2 -6 6.5t-9 10.5q-9 9 -17 18t-9 15q-13 55 -6.5 111.5t22.5 107.5t35.5 91.5
t32 63t11.5 22.5t-25.5 -30.5t-78.5 -95.5t-148 -172q-56 -61 -98.5 -77t-67 -1t-30.5 55.5t10 93.5q8 28 22.5 63t31.5 74t35 81.5t34 85.5q18 49 30.5 91.5t11.5 69.5t-19 35t-63 -13q-33 -15 -67.5 -43t-64 -65t-50.5 -79.5t-27.5 -87t4.5 -87.5t47 -81z" />
    <glyph glyph-name="V" unicode="V" horiz-adv-x="437" 
d="M4 405q0 4 -10 16q-5 8 -9 15.5t-1 14.5q6 15 24 45t42 63t50.5 62.5t49.5 45t39 10t19 -43.5q2 -25 -9.5 -76t-43.5 -138q-55 -156 -80 -248t-25 -131t22 -30t60 56t88.5 127t107.5 183l225 403q11 1 21.5 -6t17.5 -13l-228 -400q-75 -134 -140.5 -229t-110.5 -133
q-15 -13 -32.5 -19t-32.5 -3t-25.5 17t-10.5 41q0 39 11.5 91.5t28 108t34.5 108.5t32 91q2 6 10 28t17.5 49.5t17.5 55.5t10 47.5t-4.5 24t-25.5 -14.5q-20 -20 -42 -48.5t-40.5 -59.5t-32 -60.5t-17.5 -51.5z" />
    <glyph glyph-name="W" unicode="W" horiz-adv-x="743" 
d="M637 706q28 -12 44.5 -36.5t24.5 -54.5t10.5 -61.5t1.5 -56.5q-1 -64 -18 -128.5t-44.5 -124.5t-63 -113t-73.5 -95q-34 -35 -74.5 -62.5t-88.5 -42.5q-16 -5 -37 -5.5t-41.5 5t-37.5 18t-24 34.5q-10 29 -9 69.5t7 86.5q2 21 7 44t11 49q4 14 7.5 29t8.5 29
q-14 -24 -33 -55.5t-40.5 -65.5t-44 -67.5t-43.5 -62t-39.5 -49.5t-32.5 -29q-3 -2 -13.5 -1.5t-21 4.5t-19.5 12t-9 20q-1 28 12 88t43 161q21 68 46 137q21 58 49 124.5t60 121.5q9 16 20.5 33t24.5 33.5t26.5 31t26.5 23.5q14 9 26.5 -1.5t13.5 -28.5q0 -3 0.5 -8.5
t-0.5 -10.5t-2.5 -7.5t-5.5 0.5q-7 7 -11.5 9.5t-11.5 -3.5q-26 -23 -52.5 -67t-51 -96.5t-45.5 -107t-37 -99t-25.5 -73.5l-9.5 -29q-27 -90 -38.5 -142t-9.5 -77q18 15 42.5 47t51 71t51.5 80.5t45.5 75.5t33 56t12.5 23l2 2l66 -35v-4q-10 -28 -17 -54t-13 -51
q-6 -26 -10.5 -50t-6.5 -44q-6 -45 -7.5 -84.5t7.5 -65.5q7 -22 24 -26.5t39.5 2t47.5 21t47.5 30.5t39.5 31t25 23q38 41 72.5 93t61 110.5t43 120t19.5 121.5q1 15 0 38.5t-4.5 48t-10.5 48.5t-18.5 40.5t-28.5 22.5t-40 -3q-8 -2 -23 1t-20 18q26 12 53 7t53 -16z" />
    <glyph glyph-name="X" unicode="X" horiz-adv-x="603" 
d="M46 -52q-3 1 -9.5 5.5t-13 10t-11.5 11t-3 9.5q29 78 80.5 166t120.5 174q0 1 4 16t10.5 39.5t14 55t15.5 61t15.5 59.5t12.5 50q14 49 13.5 66t-20.5 3q-11 -7 -32 -29t-47 -51t-53.5 -62.5t-50 -65.5t-37.5 -59t-15 -42q-5 0 -12 5t-12.5 11.5t-9 13.5t-1.5 12
q11 22 36 57.5t55.5 74.5t64 76t61.5 63q14 13 26 22t21 13q6 3 18.5 1.5t23.5 -9t18 -20.5t3 -32q-14 -61 -28 -122.5t-28 -123.5q40 46 82 88q54 55 109 103t109 84.5t104.5 59.5t94.5 29q1 0 9 -6t17 -13.5t17.5 -14.5t11.5 -10q-2 -2 -12 -1t-24 2t-30 0t-29 -7
q-61 -24 -123 -67t-122 -96.5t-115.5 -113t-102.5 -117.5q-8 -10 -10 -13t-4 -18q-5 -43 -6.5 -84.5t1.5 -79.5q5 -60 22.5 -92t43 -43t57 -6t64 20t65 35.5t59.5 39.5q2 1 11 -12.5t19 -21.5q-66 -48 -117.5 -71t-89.5 -25q-75 -5 -122 47.5t-55 148.5q-2 21 -2 44.5
t1 46.5q-21 -30 -45 -65.5t-46 -74t-40.5 -78.5t-30.5 -77h-1z" />
    <glyph glyph-name="Y" unicode="Y" horiz-adv-x="534" 
d="M507 655q2 3 16.5 20t31.5 36.5t31.5 36.5t16.5 19l29 -17q-32 -62 -59.5 -125t-54 -125.5t-54.5 -124.5t-59 -123q8 2 21 4t26 2t23.5 -4t13.5 -15q-23 -8 -49.5 -12t-50.5 -10q-25 -46 -53 -89.5t-54.5 -80t-50 -64t-38.5 -41.5q-23 -21 -49 -29t-53 9q-22 13 -23 39
t14 57t43 65t63.5 63.5t77 52.5t83.5 32q16 31 39 78t48 100.5t49.5 109.5t44.5 105q-33 -41 -76 -95t-89.5 -109t-92 -104.5t-82.5 -82.5q-37 -32 -73 -46t-63.5 -6.5t-43 39t-10.5 91.5q2 18 4.5 38t6.5 40q10 45 24 84.5t31 73.5q15 30 30 55.5t28 45t23 32.5t15 18
l5.5 0.5t13 -0.5t13.5 -3.5t8 -8.5q-30 -29 -61.5 -82t-54.5 -115q-14 -35 -27.5 -80t-20 -86.5t-4.5 -73.5t19 -41t51 10.5t91 80.5q30 32 63.5 69.5l67 75t64.5 73t55.5 64.5t41 48.5t20.5 25.5zM324 188q-33 -10 -65 -29t-59.5 -43.5t-49.5 -51.5t-34 -52
q-11 -21 -14 -42t2.5 -33t19 -10t36.5 26q13 12 32.5 35.5t42 54.5t45.5 68t44 77z" />
    <glyph glyph-name="Z" unicode="Z" horiz-adv-x="471" 
d="M32 526q18 30 59.5 60.5t96.5 58.5t118 51.5t124 40t115 23t90 1.5q20 -4 33.5 -11t24.5 -24q13 -23 0 -57q-7 -17 -18.5 -33.5t-31 -35t-47 -39.5t-65.5 -47q-38 -27 -80.5 -58t-85.5 -63t-84.5 -64.5t-77.5 -63.5q-26 -22 -26.5 -35.5t15 -22t43 -13.5t57.5 -10.5
t58.5 -12.5t47 -20.5t22 -34t-16.5 -51.5q-25 -31 -68.5 -51.5t-92.5 -32t-97.5 -13.5t-84.5 4q-27 4 -47 20t-25 36.5t7.5 43.5t51.5 43l16 -26q-48 -32 -52.5 -50.5t18 -26t63.5 -6.5t82 9q40 7 80.5 18.5t72 25.5t50.5 29.5t15.5 30.5t-33.5 27.5t-96 21.5
q-33 5 -61.5 14t-42.5 24t-9.5 38t36.5 55q53 52 119 99t128 89q106 70 161.5 118t72.5 77t0.5 41.5t-55 11.5t-94 -13t-116 -31.5t-121.5 -44.5t-110.5 -51.5t-82 -53.5t-37.5 -50q-2 3 -6 7.5t-7.5 9.5t-5.5 9.5t0 8.5z" />
    <glyph glyph-name="bracketleft" unicode="[" horiz-adv-x="227" 
d="M75 -16q2 0 9 -4t15 -10t14 -12.5t7 -10.5q-13 0 -39 -0.5t-52 3.5t-46 13.5t-21 30.5q-1 35 18 96t49.5 135.5t68.5 156.5t75.5 157t70.5 137.5t53 99.5q1 1 10 1t20 -0.5t21 -2t13 -1.5q8 -8 20.5 -19t12.5 -21l-63 4q-4 -6 -18.5 -33t-36 -68t-48.5 -93.5t-55 -110.5
t-56 -119t-51.5 -119t-40.5 -110.5t-24 -92.5q-2 -10 7.5 -12.5t22 -2t25.5 3.5t19 4z" />
    <glyph glyph-name="backslash" unicode="\" horiz-adv-x="415" 
d="M-1 777q20 -67 57 -146.5t80 -160t87.5 -155.5t80.5 -133.5t59 -94l23 -35.5q-2 -2 -4.5 -10.5t-5 -17.5t-5.5 -15.5t-4 -4.5q-46 71 -102 161.5t-110.5 188t-101.5 195t-74 181.5q-1 3 1 10t5 14.5t7 14t7 8.5z" />
    <glyph glyph-name="bracketright" unicode="]" horiz-adv-x="267" 
d="M226 733q-2 0 -9 4t-14.5 10t-14 12.5t-7.5 10.5q13 0 39 0.5t52.5 -3t46 -13.5t21.5 -30q1 -26 -10 -67.5t-29.5 -93t-43.5 -110t-53 -118.5t-57 -118.5t-55.5 -110.5t-49.5 -94.5t-38 -69.5q-1 -2 -9.5 -2t-19.5 1t-21 2t-13 1q-8 8 -20.5 19t-12.5 21l63 -4
q5 8 28.5 52t57 108.5t72.5 144t74 159.5t61.5 154t36.5 128q2 10 -7.5 12.5t-22.5 2t-26 -3.5t-19 -4z" />
    <glyph glyph-name="asciicircum" unicode="^" horiz-adv-x="375" 
d="M129 560q5 8 14.5 22t26.5 34q12 14 28.5 31.5t38.5 37.5q20 20 44 24.5t41 -12.5q8 -10 0.5 -41.5t-18.5 -66.5q-9 -29 -15.5 -54t-2.5 -31q-5 -4 -11.5 -1t-12.5 8q-7 5 -15 13q-1 12 4 32t11.5 41.5t13.5 42.5t10 36q-10 -9 -30 -28.5t-40.5 -42t-36.5 -44t-18 -33.5
q-4 1 -11 3.5t-13 6.5t-9 9.5t1 12.5z" />
    <glyph glyph-name="underscore" unicode="_" horiz-adv-x="421" 
d="M325 15q-12 -2 -36 -4t-53.5 -4.5t-60.5 -5t-58.5 -5t-47.5 -5.5t-26 -5q-5 -2 -11 -3.5t-11 0t-8 7t-3 17.5q0 3 19.5 6.5t49.5 6.5t65.5 6t67.5 5.5t56 4t32 2.5q4 1 11.5 -2t12.5 -7.5t6.5 -8.5t-5.5 -5z" />
    <glyph glyph-name="grave" unicode="`" horiz-adv-x="299" 
d="M81 598q-2 4 1.5 7.5t8.5 6.5t9.5 4.5l4.5 1.5q8 -3 25 -13.5t36 -23.5t35.5 -25t24.5 -18q2 -2 -1 -5t-8 -7t-13 -9q-7 5 -24.5 18t-37 26.5t-37 24t-24.5 12.5z" />
    <glyph glyph-name="a" unicode="a" horiz-adv-x="414" 
d="M394 438l-54 -70q-44 -66 -74 -128.5t-40.5 -105.5t1.5 -57.5t51 16.5q10 8 26.5 25t35.5 38.5t39.5 45.5t38.5 48q2 2 5.5 -0.5t7 -7.5t6.5 -10.5t4 -9.5q-6 -8 -19 -25.5t-29 -38t-34.5 -41t-34.5 -33.5q-46 -38 -77.5 -38t-46.5 25.5t-12.5 69.5t26.5 94
q-14 -13 -31.5 -28t-35.5 -29t-35 -26t-29 -19q-27 -16 -49.5 -4.5t-36.5 35.5q-14 23 -7 52t24 58q7 15 27 40t47 50t58.5 46.5t61.5 29t56 -2.5t42 -46l48 55zM112 214q28 23 58.5 50t56 50.5t43 41l20.5 20.5q-12 31 -39.5 31t-59.5 -17.5t-62.5 -45t-48.5 -50.5
q-23 -30 -39 -61t-17 -48.5t19 -13.5t69 43z" />
    <glyph glyph-name="b" unicode="b" horiz-adv-x="278" 
d="M-29 70q-9 10 -10 29q-2 15 1.5 37.5t14.5 53.5q26 77 63.5 152t85.5 145q45 66 97.5 125t112.5 109q60 49 98 62t52 -0.5t1.5 -49t-53.5 -82.5q-40 -46 -94 -92.5t-106 -87.5t-93.5 -73.5t-56.5 -50.5q5 5 11 8l12 6q10 4 22 4t24 -3t23 -8.5t18 -12.5q10 -10 14 -21
q11 -26 3 -61q-4 -14 -12.5 -34t-21.5 -43q14 6 33 15.5l36 18t29 15l12 6.5q1 -1 3 -5.5t3.5 -10t2 -10.5t-2.5 -7q-6 -4 -20 -10.5t-31.5 -14t-36 -15t-33.5 -12.5q-7 -1 -16 -5q-6 -8 -12 -17t-12 -17q-23 -29 -46 -46.5t-40 -26.5q-24 -13 -42 -1t-33 31zM109 393
q37 40 76.5 74t78.5 67t75.5 66.5t68.5 71.5q34 42 50 67.5t11.5 31t-29.5 -10t-72 -54.5q-60 -50 -112.5 -109t-97.5 -125q-13 -20 -25.5 -39.5t-23.5 -39.5zM99 128q3 4 6 7.5t5 7.5q-9 1 -22 5.5t-25.5 11t-22.5 15t-14 18.5q-2 4 -2.5 8t-1.5 9q-3 -9 -6 -17.5t-6 -16.5
q-18 -53 -18 -82t14 -35t38.5 11.5t54.5 57.5zM128 172q19 30 32.5 59t17.5 46q3 11 3.5 25.5t-3 26.5t-12.5 18t-25 -1q-13 -6 -24 -16q-15 -13 -26.5 -30.5t-18.5 -37.5q-16 -41 -5 -72q10 -22 26 -22t35 4z" />
    <glyph glyph-name="c" unicode="c" horiz-adv-x="331" 
d="M215 419q-35 -20 -66.5 -46t-57.5 -57.5t-44 -67t-24 -73.5q-8 -43 5 -61.5t36 -20.5t52.5 8.5t55.5 25.5t52 32.5t47.5 34t38 30t24.5 21.5q2 1 6 -1.5t7.5 -6.5l7 -8t4.5 -5q-10 -12 -29 -28t-43 -34t-51.5 -36t-54.5 -32.5t-52 -24t-44 -10.5q-13 -2 -26 2.5t-25.5 12
t-23 18t-17.5 22.5q-9 14 -12 34q-3 26 7 63t40 85q16 25 38 51t47.5 49t53 40t54.5 24q36 8 67 -1t47.5 -30.5t14.5 -52.5t-31 -66q-2 0 -8.5 1.5t-12.5 4t-10 5.5t-2 5q23 33 29.5 60t-3 41.5t-34 13.5t-63.5 -22z" />
    <glyph glyph-name="d" unicode="d" horiz-adv-x="414" 
d="M446 214q-18 -21 -38 -43.5t-39.5 -42.5t-36.5 -35t-29 -21q-27 -12 -49 -4.5t-37 26t-22.5 43t-5.5 46.5q0 5 0.5 10.5t1.5 11.5q-1 0 -1.5 -0.5t-1.5 -0.5h-1q-12 -15 -26.5 -30.5t-29.5 -29.5t-29 -26.5t-24 -20.5q-25 -17 -46 -12t-39 28q-17 21 -15.5 49.5
t14.5 59.5q7 18 25 48t42 61.5t52.5 59.5t55.5 41.5t51.5 7t40.5 -43.5q59 130 118.5 212.5t109.5 124t85.5 46t47.5 -20.5t-4.5 -75.5t-70.5 -118.5q-50 -63 -91.5 -111t-73.5 -84q-32 -34 -66 -67t-72 -62q-18 -47 -20.5 -77t5 -45t23 -17.5t33.5 6.5q16 8 33 22.5
t34.5 33t34.5 39t32 41.5zM323 434q-18 -36 -32.5 -63.5t-26.5 -64.5q18 17 40.5 39t51 51t63 68t76.5 90q29 39 50.5 76t41.5 82q17 38 5.5 42t-39.5 -17q-33 -25 -66.5 -62t-63.5 -78.5t-55.5 -84t-44.5 -78.5zM215 280q15 62 12 89.5t-17.5 30.5t-36.5 -13t-45 -40
t-44 -51t-32 -46q-22 -38 -32.5 -67t-7 -44t21 -12t52.5 30q19 15 41 35t40.5 38.5t32 32.5t15.5 17z" />
    <glyph glyph-name="e" unicode="e" horiz-adv-x="295" 
d="M-21 181q4 30 23.5 64.5t46.5 67t57 59.5t55 42t52 13t44 -16.5t19 -40t-23 -58.5q-29 -38 -76 -74q-41 -32 -85 -54.5t-75 -24.5v-5q-5 -36 14.5 -43.5t51.5 3.5q28 9 62 26.5t65 37t55.5 37t32.5 27.5l6 -6t8 -9t6 -9.5t0 -6.5q-15 -14 -46 -36.5t-66.5 -43.5
t-70.5 -37.5t-58 -18.5q-19 -2 -38 7t-33.5 24t-22 35t-4.5 40zM29 194q25 2 56.5 18.5t62.5 40t56 50.5t37 51q20 40 5 47t-50 -14q-23 -13 -47.5 -36t-47.5 -50t-42 -55.5t-30 -51.5z" />
    <glyph glyph-name="f" unicode="f" horiz-adv-x="275" 
d="M80 198q51 -51 53 -113t-36 -129q-32 -57 -63 -82.5t-56.5 -24.5t-42.5 26t-21 69t8.5 104.5t45.5 132.5q19 40 43.5 83.5t53.5 83t61 70.5t65 48q39 18 66 14.5t37.5 -23.5t0.5 -53t-46 -73q-34 -37 -71 -64t-60 -39q19 2 48.5 4t57 4t48 3.5l20.5 1.5q2 -1 3 -6.5
t0.5 -12t-2.5 -11.5t-5 -5q-22 -2 -49 -2.5t-54.5 -1t-54.5 -1t-50 -3.5zM63 -19q10 17 17.5 36t11.5 39t4.5 39.5t-3.5 36.5q-7 32 -31.5 49t-47.5 11q-39 -71 -58 -129t-23 -98.5t5 -62t27.5 -21t44 24.5t53.5 75zM215 432q-21 -10 -45 -31.5t-47 -47.5t-43.5 -54
t-34.5 -50q26 6 46.5 12.5t40.5 18.5t42 31.5t51 51.5q21 22 37 44t19 34.5t-11.5 12.5t-54.5 -22z" />
    <glyph glyph-name="g" unicode="g" horiz-adv-x="386" 
d="M341 377q-9 -13 -27.5 -42t-41.5 -67q-16 -26 -32.5 -55t-30.5 -58q23 3 52 14t56 25t47.5 28t26.5 23q8 -3 12.5 -16.5t-0.5 -18.5q-20 -18 -47.5 -32.5t-57.5 -27t-59 -23t-52 -20.5q-10 -22 -26.5 -50t-37.5 -58.5t-45.5 -60.5t-49.5 -57q-24 -26 -47.5 -46.5
t-45.5 -33.5q-22 -14 -40.5 -17.5t-32.5 4.5l-12 11q-8 12 -15 20t-10.5 17t-3.5 20t6 29q12 37 50 75q24 23 55 45.5t65 42.5q48 29 93 51.5t74 34.5q9 20 24 46t26 47l12 22q-15 -15 -33 -33.5t-35.5 -35.5t-33 -30.5t-25.5 -19.5q-13 -8 -29 -10.5t-32 -0.5t-29 9t-20 19
q-13 23 -6.5 52t24.5 58q10 17 33.5 44t52.5 53.5t61 48t61 28.5t51 -5t32 -52l1 -8l5 7q10 15 15.5 26.5t5.5 12.5q7 -5 14 -16.5t2 -18.5zM141 87q-27 -13 -59 -29.5t-64 -36.5q-33 -20 -64 -42t-55 -45q-35 -35 -48 -72q-8 -23 -5 -35.5t12.5 -15.5t24.5 1.5t32 15.5
q20 12 43.5 32.5t46.5 45.5q39 42 75 90.5t61 90.5zM104 197q28 23 58.5 50t56 50.5t43 41l20.5 20.5q-7 26 -20.5 35.5t-32 7t-39.5 -15.5t-42.5 -31t-41 -38.5t-34.5 -39.5q-23 -30 -39 -61t-17 -48.5t19 -13.5t69 43z" />
    <glyph glyph-name="h" unicode="h" horiz-adv-x="475" 
d="M61 177q20 16 46 36t54.5 39.5t57.5 36.5t53.5 27t42.5 11t26 -10q5 -6 8 -13.5t2 -17.5q0 -9 -5 -28t-8.5 -40t-2.5 -38.5t12 -22.5q8 -4 24 2.5t34.5 19.5t37.5 29t34 30q6 -6 11 -10t7.5 -7t1 -7t-8.5 -11q-11 -11 -25 -24.5t-30.5 -24.5t-35 -18.5t-37.5 -7.5
q-26 1 -40 16.5t-19 37.5t-3 45.5t8 40.5q6 16 7 26.5t-13 5.5q-12 -4 -27 -12.5t-40 -24.5q-22 -15 -45.5 -32.5t-46 -34.5t-43 -33t-36.5 -29q-5 -4 -12.5 -10.5t-15.5 -13t-15 -12.5t-10 -8q-6 -5 -20 -4t-25.5 9.5t-16.5 24t6 40.5q4 9 20.5 37.5t42 69t58.5 90.5
t71 103t79 105.5t82.5 98.5t81 82t74.5 56q7 4 18 9t21 6t18 -3t10 -17q0 -2 -1.5 -8t-4 -12.5t-5 -12t-2.5 -6.5q-7 8 -14 12t-15 5t-16 -5q-11 -9 -25 -20.5t-30 -26.5q-120 -114 -215 -251.5t-179 -282.5q-26 -44 -28.5 -56.5t7 -6.5t27.5 22t33 29z" />
    <glyph glyph-name="i" unicode="i" horiz-adv-x="213" 
d="M235 219q3 -4 -13.5 -20.5t-41 -37t-53 -40t-50.5 -28.5q-19 -9 -36.5 -9t-31 8t-21 24t-6.5 40t8.5 52t18.5 55.5t25 52.5t27 44q8 11 15 17t12 2l30 -26q-16 -9 -33 -33t-32 -54t-26 -61.5t-15 -55.5q-4 -26 5 -34t43 3q13 5 36 21t46.5 36t44 39.5t29.5 30.5zM124 460
q6 20 22.5 35.5t34.5 25.5q4 2 9 -2t9.5 -10t8 -12t4.5 -8q-19 -9 -36 -27t-21 -39q-3 0 -8 5.5t-10.5 12t-9 12t-3.5 7.5z" />
    <glyph glyph-name="j" unicode="j" horiz-adv-x="410" 
d="M261 168q35 16 63 29.5t48 23.5q23 11 39 21q4 -2 8 -6.5t6.5 -10t2.5 -10.5t-3 -7q-47 -27 -91 -45.5t-98 -42.5q-11 -23 -30.5 -51t-44 -58t-53 -60.5t-58.5 -57.5q-28 -26 -55 -46t-52 -34q-26 -14 -48 -17.5t-38 4.5q-8 5 -14 12q-10 12 -17.5 20t-12 17t-4 20
t7.5 29q12 37 57 74q29 23 65.5 46t74.5 43q56 29 109 51t86 34l6 2q12 17 29.5 56t23.5 104q2 26 -5.5 44.5t-21.5 27.5t-33 8.5t-40 -12.5t-43 -33t-41.5 -45t-35 -50t-23.5 -49q-9 3 -20.5 11t-7.5 18q10 32 27 61t37.5 52t43.5 39.5t46 22.5q13 4 29.5 5.5t33 -0.5
t32 -7.5t27.5 -14.5q15 -12 22.5 -32t5.5 -47q-5 -49 -16.5 -83.5t-23.5 -55.5zM182 99q-32 -12 -68.5 -28.5t-74.5 -36.5t-74.5 -42.5t-64.5 -45.5q-42 -35 -55 -71q-9 -24 -6 -36t14 -15.5t28 1t37 15.5q25 13 51.5 33t54.5 45q45 42 87 90.5t71 90.5zM329 568q4 2 9 -2
t10 -10t8.5 -12t4.5 -8q-9 -5 -18.5 -15.5t-17 -24t-13 -27.5t-6.5 -24q-22 12 -26.5 29.5t2 36t20 34t27.5 23.5z" />
    <glyph glyph-name="k" unicode="k" horiz-adv-x="377" 
d="M115 445q64 91 126.5 149.5t114 88.5t88.5 34t51 -14t0.5 -55.5t-62 -90.5t-136.5 -119.5t-224 -141.5q-8 -4 -10.5 -13t-6.5 -17q11 10 32.5 23.5t45.5 25t47.5 19t38.5 7.5q18 -1 31 -13.5t18 -37.5q3 -8 -2 -20q-5 -14 -21.5 -28.5t-42.5 -27.5q-12 -5 -27.5 -11.5
t-34.5 -12.5q-17 -6 -37.5 -12t-44.5 -13l-8 -2l-8 -2q1 -33 15 -49t34 -20.5t43.5 0t43.5 13.5q26 12 55 28.5t56 34.5t50.5 36.5t38.5 34.5q1 -2 5 -5.5t7 -7.5t4.5 -8t-0.5 -6q-19 -21 -48 -44t-62 -43.5t-67.5 -36t-64.5 -20.5q-36 -6 -62.5 2t-43.5 25t-24.5 42
t-5.5 53q-11 -24 -21 -48.5t-19 -47.5q-2 -7 -4.5 -16.5t-1.5 -17.5q-10 0 -17 6t-11 15t-5 18.5t2 17.5q37 83 80 168t95 160zM53 200q32 9 65 20t63 25q10 4 25 14.5t25.5 21t11.5 18t-18 5.5q-23 -3 -48.5 -11.5t-49.5 -22t-44 -31.5t-30 -39zM90 339q10 7 32 22.5
t51.5 36t64 45.5t69 52t66 55t56.5 54q27 29 37.5 49t6 28.5t-23.5 4t-49 -23.5q-31 -20 -75.5 -57.5t-89.5 -82.5t-84.5 -93t-60.5 -90z" />
    <glyph glyph-name="l" unicode="l" horiz-adv-x="255" 
d="M132 133q38 29 71 57.5t53 48.5l1 1q2 1 5 -2t6 -7.5t6 -9.5t6 -8q-15 -15 -42.5 -40t-58 -50t-59.5 -45t-48 -26q-29 -9 -49 1.5t-31.5 31t-14.5 46.5t2 48q8 38 34 89.5t62.5 108t81 113t90 104t89 81.5t79.5 46q3 1 8.5 -3.5t10.5 -10.5t9 -12.5t5 -9.5
q-36 -9 -83 -42.5t-96 -82.5t-96.5 -108t-84.5 -119q-14 -23 -32.5 -59t-32.5 -73t-20 -69t3.5 -46.5t39 -6t86.5 53.5z" />
    <glyph glyph-name="m" unicode="m" horiz-adv-x="588" 
d="M47 150q21 26 61.5 80t102.5 117q1 1 4.5 -6.5t7.5 -16.5t6.5 -17.5t1.5 -10.5q-24 -67 -31.5 -101.5t-2.5 -44.5t20 0t34 29.5t40.5 44.5t39.5 47l48 54t47.5 50.5t44.5 41.5t39 26q5 2 9 -5.5t6.5 -17.5t3.5 -19t1 -10q-29 -60 -56.5 -118.5t-37.5 -119.5
q-2 -14 0 -21.5t7 -10t12.5 0t16.5 8.5q10 6 27.5 21t35.5 32t33 32t21 22q7 -7 13 -19.5t-7 -25.5q-11 -11 -30 -30.5t-38.5 -38.5t-37 -33.5t-25.5 -15.5q-23 -3 -36.5 20t-15.5 71q-3 25 3 49t15.5 46.5t21.5 44.5t22 43q-11 -1 -31.5 -20.5t-46 -48.5t-53.5 -62.5
t-54 -62t-47.5 -47.5t-34.5 -19q-17 0 -27 22t-10 59q0 10 2 24t5 28t6 26.5t5 19.5q-29 -28 -49 -55t-36 -51.5t-31.5 -47t-36.5 -40.5q-6 -4 -11 -6.5t-9 -1.5q-11 2 -20 14t-14.5 29t-6.5 37t4 38q5 16 12.5 37.5t16.5 44t19 44.5t19 38q20 37 38.5 63.5t29.5 34.5
q1 0 6.5 -5t11 -12.5t9 -16t0.5 -15.5h-1q-9 -3 -22 -18t-26.5 -37t-27 -47.5t-24.5 -50t-20 -45t-12 -31.5q-12 -38 -10 -49t10.5 -7t20 17t19.5 22z" />
    <glyph glyph-name="n" unicode="n" horiz-adv-x="471" 
d="M38 162q26 17 46.5 34t42.5 37q18 18 41 42t48 45t49.5 33.5t45.5 8.5q2 1 9 -2.5t14.5 -9t13 -10.5t4.5 -7q-29 -56 -40 -94.5t6 -52.5q16 -14 56.5 -1.5t97.5 55.5q2 -2 5 -7.5t5.5 -11.5t3.5 -11t0 -6q-53 -41 -97.5 -53t-71.5 0.5t-33.5 48.5t17.5 91q4 9 7 18
t2 14.5t-8 5t-22 -10.5q-17 -11 -41.5 -34.5t-53 -51t-58.5 -54t-56 -43.5q-13 -8 -27.5 -5.5t-27.5 11.5t-22 21t-10 22q-2 20 14.5 54t39.5 68.5t48 62t39 35.5q7 4 16.5 -0.5t16.5 -12.5t9.5 -16.5t-3.5 -12.5q-1 2 -7 7t-11 1q-32 -29 -59.5 -69t-48.5 -78
q-3 -4 -9.5 -18t-10 -27.5t-0.5 -20t20 4.5z" />
    <glyph glyph-name="o" unicode="o" horiz-adv-x="284" 
d="M31 109q32 2 78 59q2 2 3 4l2 4q-7 4 -15.5 14t-16 21.5t-13.5 23t-7 20.5q-1 6 -1.5 11.5t-0.5 10.5q-4 -8 -9.5 -17t-11.5 -21q-3 -6 -12 -28t-14 -45t-3 -41t21 -16zM228 342q2 -37 -25 -96q-5 -10 -13 -25.5t-14 -25.5q21 5 52.5 17.5t61.5 30.5q1 -2 4.5 -7t6.5 -10
t3.5 -9.5t-2.5 -6.5q-48 -28 -84 -39t-62 -10q-5 -7 -9.5 -14t-9.5 -12q-24 -32 -46 -47t-39 -16q-41 -3 -59.5 23.5t-16.5 70.5q2 18 12 48.5t24 60.5t31 52.5t32 23.5q14 32 34.5 53.5t46.5 22.5q13 1 25.5 -7.5t22.5 -21t16.5 -28t7.5 -28.5zM98 301q-5 -17 -8 -34.5
t-0.5 -32t12 -24t29.5 -11.5q38 59 53 98.5t15 62t-12 29t-28.5 -1.5t-33.5 -30t-27 -56z" />
    <glyph glyph-name="p" unicode="p" horiz-adv-x="385" 
d="M67 212q-11 -11 -21 -22t-21 -24q-31 -37 -54.5 -69t-43 -65t-37 -69t-38.5 -81q-1 -2 -4.5 1.5t-7.5 8t-7.5 9t-3.5 5.5q-1 14 16.5 54.5t46 93.5t63.5 112.5t69 110.5t62 87t43 44q4 2 9.5 -5.5t8.5 -16.5t2.5 -14.5t-8.5 1.5q-3 3 -13 -6.5t-22.5 -25.5t-26 -36.5
t-26 -39.5t-21.5 -33t-11 -18q12 12 34 32.5t49.5 44t58.5 46.5t61.5 40.5t57.5 26.5t47 4q16 -4 21.5 -22t0.5 -41q-4 -20 -15 -47.5t-22 -49.5q21 0 40 -0.5t39 0.5q6 0 2.5 -12.5t-8.5 -18.5q-15 0 -25 0.5t-19 0.5h-19h-25q-18 -27 -44 -51.5t-55 -36.5t-56.5 -7t-48 19
t-29 33.5t0.5 36.5zM87 230q6 4 10 5q10 4 29 6.5t43.5 4t52.5 2t56 0.5q17 28 29 54t12 42.5t-15.5 20.5t-51.5 -13q-19 -8 -41.5 -23t-45.5 -33t-43.5 -35.5t-34.5 -30.5zM256 218q-46 -1 -85 -3.5t-54 -7.5q-27 -11 -30 -24.5t9 -22.5t35 -11t49 9q21 9 40.5 25t35.5 35z
" />
    <glyph glyph-name="q" unicode="q" horiz-adv-x="542" 
d="M389 422q-23 -21 -51 -64t-57 -96.5t-56 -113t-48.5 -113t-35 -97t-13.5 -64.5q13 18 35 57t48.5 87.5t56 100.5t57.5 97t53 77t44 41q3 2 9 1t12 -3.5t10 -7t3 -10.5q-5 -33 2 -51.5t21.5 -26t33.5 -5t38 13.5q3 -5 1 -18.5t-9 -16.5q-17 -9 -37 -7t-37.5 12.5t-31 29
t-17.5 44.5q-15 -18 -36 -52t-45.5 -75.5t-50 -87.5t-49 -87.5t-43 -76t-31.5 -52.5q-13 -18 -16 -18q-4 0 -12.5 4.5t-18.5 11t-18 13t-10 10.5q1 15 12 52.5t29 87.5t42 108.5t53 116.5q-20 -15 -34 -28t-28.5 -25.5t-33 -26.5t-47.5 -31q-27 -16 -49.5 -4.5t-36.5 35.5
q-14 23 -7 52t24 58q7 15 27 40t47 50t58.5 46.5t61.5 29t56 -2.5t42 -46l8 9q11 16 21 27t19 16l7 -0.5t15 -3t12.5 -6.5t0.5 -11zM112 214q28 23 58.5 50t56 50.5t43 41l20.5 20.5q-12 31 -39.5 31t-59.5 -17.5t-62.5 -45t-48.5 -50.5q-23 -30 -39 -61t-17 -48.5t19 -13.5
t69 43z" />
    <glyph glyph-name="r" unicode="r" horiz-adv-x="353" 
d="M161 422q-5 3 -14.5 -8.5t-20 -26.5t-18.5 -29t-9 -17q-15 -26 -34 -59.5t-36.5 -70t-31 -73t-18.5 -67.5q20 28 46 67.5t54 79t57.5 71.5t57.5 45q3 2 9 1t12 -3.5t10 -7t3 -10.5q-5 -33 2 -51.5t21.5 -26t33.5 -5t38 13.5q3 -5 1 -18.5t-9 -16.5q-17 -9 -37 -7
t-37.5 12.5t-31 29t-17.5 44.5q-19 -17 -38.5 -40.5t-38.5 -50t-37 -52.5t-33 -47q-18 -26 -29 -44t-16 -18q-4 0 -12.5 4.5t-18.5 11t-18 13t-10 10.5q2 29 13 58.5t22 54.5q5 12 15.5 34t23.5 48.5t28 55t30 52.5t28.5 41.5t24.5 22.5l7 -0.5t15 -3t12.5 -6.5t0.5 -11z
" />
    <glyph glyph-name="s" unicode="s" horiz-adv-x="421" 
d="M288 364q59 46 74 73t0 35.5t-52.5 -1t-84.5 -36t-95.5 -69t-85.5 -99.5q-23 -36 -19 -49t21.5 -13t41 8.5t41.5 14.5q95 35 137 30q10 -1 18.5 -8.5t13.5 -19t6 -24t-3 -22.5q40 20 74 36.5t54 18.5q2 -6 4 -16t-3 -11q-11 -2 -32 -11t-45 -21.5t-46 -26.5t-34 -24
q-37 -57 -78 -92t-70 -47q-11 -3 -23 2.5t-19.5 16t-8 24t10.5 26.5q15 16 49 38q12 8 24 15.5t23 13.5q17 10 31 15.5t19 7.5q24 9 32.5 22t20.5 38q5 12 -2.5 16t-22.5 3t-34 -6t-36.5 -10.5t-30.5 -10t-16 -5.5q-18 -7 -46 -13t-51 -4q-22 2 -34 13.5t-15.5 28.5t1 37
t15.5 38l4 7q12 18 29.5 39t38.5 42t45 40.5t49 36.5q18 12 41.5 24.5t48.5 19.5t49 5.5t43 -17.5q4 -3 8.5 -11t8.5 -17.5t6 -19.5t1 -16q-3 -14 -12 -27q-14 -22 -35.5 -42t-35.5 -30q-5 -4 -7 1q-3 7 -3.5 19t-2.5 14zM229 115q-13 -6 -28.5 -15t-31 -19.5t-30 -20.5
t-25.5 -19q-9 -8 -13.5 -14.5t-4 -10t7 -2t18.5 9.5q9 6 23 17t29 24t29.5 26.5t25.5 23.5z" />
    <glyph glyph-name="t" unicode="t" horiz-adv-x="213" 
d="M-28 394q6 3 19 7.5t39 8.5q40 6 67 9q29 45 61.5 88t64.5 78t62 60t54 34q3 1 7 -3t8 -10t7.5 -11.5t3.5 -8.5q-21 -6 -48 -26t-56 -50t-59 -67.5t-58 -78.5q18 2 36 2.5t38 0.5t44 -1t55 -2q10 0 22.5 -11.5t11.5 -22.5q-13 1 -38 1.5t-57 0.5t-67.5 -0.5t-68.5 -2.5
q-14 -23 -27.5 -44.5t-24.5 -43.5q-10 -18 -22.5 -44t-23.5 -54t-18.5 -53.5t-7.5 -42.5t9.5 -23t32.5 7q19 11 44 31.5t50.5 43.5t48 44t36.5 32q4 3 10.5 -9.5t7.5 -21.5q-12 -14 -36.5 -39t-52 -49.5t-53.5 -45t-41 -25.5q-23 -9 -39 1t-26 29t-12.5 43.5t1.5 44.5
q8 41 34.5 97.5t64.5 117.5q-38 -4 -62 -11t-22 -18q-4 -3 -8.5 2t-7.5 12.5t-4.5 14.5t1.5 9z" />
    <glyph glyph-name="u" unicode="u" horiz-adv-x="356" 
d="M275 401q3 8 9.5 7.5t12.5 -5.5q7 -5 16 -15q-7 -15 -17.5 -35.5t-22 -41t-20.5 -39t-13 -30.5q-17 -52 -4.5 -76.5t49.5 -0.5q15 10 33.5 28.5t40.5 53.5q3 -4 7 -8t7 -8.5t4 -9t-3 -9.5q-20 -26 -43.5 -50t-56.5 -34q-13 -5 -25 -0.5t-22 14t-18 22.5t-13 26
q-9 -17 -21.5 -34.5t-26.5 -33.5t-28 -28.5t-25 -18.5q-13 -6 -27.5 -5.5t-28.5 7t-26 19t-18 29.5q-11 29 -7 63.5t16 69.5t29 68t33 58t27.5 40.5l11.5 15.5q2 -2 10 -3.5t15.5 -4.5t11 -8t-3.5 -14q-10 -13 -23 -34t-26 -46.5t-25 -52t-21 -49.5q-13 -31 -15 -59t4 -47
t18 -25t29 7q23 18 52.5 57.5t57.5 84.5t51 88t35 67z" />
    <glyph glyph-name="v" unicode="v" horiz-adv-x="273" 
d="M105 158q37 47 83 128.5t106 201.5q3 -2 9 -5t12 -7.5t9.5 -8.5t1.5 -7q-57 -114 -101.5 -191t-80.5 -122q-14 -17 -36.5 -39t-45.5 -31q-20 -8 -37 -0.5t-34 23.5q-15 13 -15.5 37.5t7 54t20.5 60t26 55.5t22 41l9 16q2 -1 8.5 -3t12 -6.5t8.5 -11.5t-3 -17
q-12 -22 -27.5 -55t-26.5 -66q-14 -41 -16 -68.5t8 -35.5t30.5 5t50.5 52z" />
    <glyph glyph-name="w" unicode="w" horiz-adv-x="488" 
d="M81 317q-12 -19 -23.5 -43t-19.5 -50q-11 -30 -14.5 -53t0 -36t14 -13.5t27.5 14.5q20 18 31 35.5t18.5 36.5t14 39t18.5 43q3 4 9.5 1t13.5 -8.5t12 -11.5t4 -7q-5 -17 -12.5 -36t-12.5 -39t-4.5 -39.5t11.5 -36.5q8 -12 20 -14t26 2t29 13t29 20q25 20 48 47.5t42 59
t33 65.5t22 68q11 45 5 81.5t-35 53.5q3 7 21.5 3.5t35.5 -23t23.5 -58.5t-15.5 -104q-12 -35 -31.5 -71t-43.5 -69t-51 -60.5t-54 -45.5q-32 -21 -61 -13.5t-69 36.5q-18 12 -24 31l-12.5 -10t-16 -12.5t-16 -11.5t-11.5 -6q-8 -2 -20 1t-23.5 10t-21 17.5t-13.5 23.5
q-6 23 -0.5 52.5t17.5 60.5q9 22 19.5 42t21 36.5t20 28t15.5 14.5q12 -1 23 -2q8 -2 15.5 -3.5t5.5 -6.5q-2 -9 -15.5 -21.5t-24.5 -30.5z" />
    <glyph glyph-name="x" unicode="x" horiz-adv-x="416" 
d="M458 456q-27 -17 -59 -50.5t-65 -71.5t-64 -74.5t-54 -59.5q-6 -42 0.5 -61t23.5 -20.5t44 12t62 34.5q1 1 5 -3.5t8 -10.5t7.5 -12.5t5.5 -9.5q-36 -20 -68.5 -32.5t-58.5 -12t-43.5 18t-23.5 57.5q-29 -36 -54.5 -70.5t-45.5 -66.5q-2 -4 -7 -2.5t-10 4.5t-10 7t-8 5
q27 42 61.5 84.5t69.5 93.5q1 44 8.5 85t1.5 81q-4 24 -17.5 25t-31 -13.5t-36.5 -40t-34.5 -53t-25 -53.5t-7.5 -41q-9 -2 -17 3t-14 12t-9 15.5t-1 14.5q5 21 17 47t28.5 50.5t35 46t35.5 33.5q31 21 54.5 17t39 -25t21.5 -54.5t2 -69.5q-1 -9 -2.5 -18t-2.5 -18
q27 32 59.5 70t62 71t52.5 56t32 26t19.5 -8t13.5 -18z" />
    <glyph glyph-name="y" unicode="y" horiz-adv-x="338" 
d="M311 406q-4 -7 -13.5 -26.5t-21.5 -45t-25 -54t-25 -54t-21 -45t-12 -26.5q23 7 47 18.5t44.5 23.5t35.5 23t20 17q8 -3 12.5 -16.5t-0.5 -18.5q-40 -36 -87.5 -55.5t-93.5 -39.5q-10 -22 -26.5 -50t-37.5 -58.5t-45.5 -60.5t-49.5 -57q-24 -26 -47.5 -46.5t-45.5 -33.5
q-22 -14 -40.5 -17.5t-32.5 4.5l-12 11q-8 12 -15 20t-10.5 17t-3.5 20t6 29q12 37 50 75q24 23 55 45.5t65 42.5q48 29 93 51.5t74 34.5q8 18 21 46t27 54l-1 1q-6 -13 -16 -26.5t-21.5 -26t-23.5 -22t-22 -13.5q-12 -5 -26.5 -4.5t-28.5 6t-27 15t-21 22.5
q-14 22 -14 48.5t7.5 53t20 51.5t25 44.5t21.5 31l9 11.5q2 -2 10 -3t15.5 -3t11.5 -6t-1 -11q-14 -18 -29.5 -43.5t-27.5 -53.5t-17.5 -56t-0.5 -51t20.5 -32.5t33.5 2.5q13 9 29.5 28t33.5 43t34 51t31.5 52t25 46l16.5 33q2 6 8.5 5.5t14 -4.5t14.5 -9.5t11 -7.5zM125 87
q-26 -12 -56.5 -28t-62.5 -35t-62 -40t-53 -44q-34 -34 -47 -69q-7 -22 -4.5 -33.5t12 -14.5t24 1.5t30.5 14.5q20 11 42 31t45 44q38 40 73 86t59 87z" />
    <glyph glyph-name="z" unicode="z" horiz-adv-x="456" 
d="M55 340q21 34 48.5 62t58.5 48.5t62.5 33.5t58.5 16q37 4 60.5 -10t33.5 -40t6.5 -61t-20.5 -72l25 -3q1 0 4.5 -5t6.5 -11t5 -13t1 -12q-35 8 -62 8q-24 -40 -55.5 -76.5t-63.5 -66.5q15 -10 43.5 -9.5t62 12.5t68 36t61.5 60q4 -5 8 -17t1 -16q-32 -42 -69.5 -65
t-75.5 -33t-73 -8.5t-61 9.5h-1q-55 -49 -116 -78q-7 -4 -22.5 -9t-33 -8t-35 -2.5t-30 7.5t-17 22.5t3.5 41.5q5 15 19 31t38 30q27 15 51 20.5t45.5 5t42 -5.5t40.5 -10q11 9 22.5 18.5t22.5 19.5q22 23 42 45.5t37 45.5q-16 0 -31 -3q-25 -5 -39 -11t-19 -11q-1 0 -5 3.5
t-8 9.5t-7 13t-2 12q14 9 34 16q17 6 43 10.5t61 2.5q4 5 7.5 11.5t6.5 11.5q35 67 22.5 92.5t-72.5 15.5q-28 -4 -60 -18t-63 -36.5t-58.5 -53.5t-45.5 -68q-5 4 -8 12.5t-3.5 18t0.5 18t4 13.5zM136 121q-29 5 -59 1.5t-65 -23.5q-22 -11 -35 -24.5t-18 -26.5q14 -5 38 0
t59 23q43 23 80 50z" />
    <glyph glyph-name="braceleft" unicode="{" horiz-adv-x="277" 
d="M499 704q-10 14 -22.5 9.5t-26 -19.5t-27.5 -37.5t-26 -45t-21.5 -42t-14.5 -28.5q-21 -36 -39 -64t-38.5 -51t-45 -44t-57.5 -45q-22 -16 -37 -26.5t-15 -11.5q7 -5 17 -21.5t10 -49.5t-17 -85t-66 -129q-19 -32 -18 -42t39 12q3 1 8 -3t11 -11t11.5 -14t7.5 -10
q-27 -18 -50.5 -21.5t-33.5 -2.5q-5 0 -10 5t-10 12t-8.5 13.5t-4.5 10.5q-4 11 0 27t10 30.5t12.5 25l6.5 10.5q30 48 45.5 84.5t21.5 64.5t5 48t-4 34q-1 0 -5.5 -0.5t-10.5 -1.5q-7 -1 -15 -3q-1 0 -6 6t-10 13.5t-7 15t4 10.5q27 15 56.5 34.5t57 40.5t51.5 43t40 43
q11 14 25.5 38t30.5 52t33 58t33.5 55t30.5 43t24 23q8 4 21.5 -2.5t24 -16.5t15 -20.5t-4.5 -16.5z" />
    <glyph glyph-name="bar" unicode="|" horiz-adv-x="166" 
d="M20 -13q-3 -3 -9.5 -0.5t-12.5 7t-10.5 9.5t-4.5 7q1 35 12.5 90t27.5 114.5t33 114.5t30 91q8 24 16.5 58l16.5 66q8 37 16 77q3 0 9 -3t11.5 -7.5t9.5 -9t3 -6.5q-12 -60 -28.5 -120t-34 -119t-35 -118.5t-31.5 -119.5q-5 -20 -8 -35.5t-4.5 -30.5t-3 -30.5t-3.5 -34.5
z" />
    <glyph glyph-name="braceright" unicode="}" horiz-adv-x="441" 
d="M-55 -24q9 -14 21.5 -10t26.5 19t27.5 37.5t25.5 45t21.5 42t14.5 28.5q21 36 39 64t38.5 51t45 44.5t57.5 45.5q22 15 37 25.5t15 12.5q-7 5 -17.5 21.5t-10.5 49t17.5 84.5t66.5 129q20 32 18.5 42t-39.5 -12q-3 -2 -8 3t-11 11.5t-11 13.5t-7 10q26 19 49.5 22t34.5 3
q4 0 9 -5.5t9.5 -12t8 -13.5l5.5 -11q4 -11 0 -27t-10 -30.5t-12.5 -25l-6.5 -10.5q-30 -48 -46 -85t-22 -64.5t-4.5 -47.5t4.5 -34q1 -1 6 0l10 2q6 1 14 3q1 0 6 -6t10 -13.5t7.5 -15t-3.5 -10.5q-27 -15 -56.5 -34.5t-57 -40.5t-51.5 -42.5t-40 -42.5q-11 -14 -25.5 -38
t-30.5 -52.5t-33 -58t-33 -55t-30 -43.5t-24 -22q-8 -4 -21.5 2t-25 16t-16 21t5.5 16z" />
    <glyph glyph-name="asciitilde" unicode="~" horiz-adv-x="421" 
d="M255 234q19 13 39 30t31 33q2 -1 7.5 -4t11.5 -6.5t9.5 -7.5t2.5 -7q-10 -15 -28 -30.5t-36 -28.5t-31.5 -21l-13.5 -8q-4 -2 -9.5 1.5t-10 8.5t-7.5 10l-3 5q8 54 2 75.5t-20 20.5t-32.5 -18t-35 -40t-29 -46t-14.5 -35q-5 1 -11 4.5t-10.5 8t-7 9t-2.5 7.5
q7 27 25.5 53t42 45t48.5 29t44.5 5.5t30.5 -26.5t7 -67z" />
    <glyph glyph-name="cent" unicode="&#xa2;" horiz-adv-x="337" 
d="M274 407q17 41 11 57t-25 16q-24 -51 -52.5 -114t-54.5 -138q2 2 3.5 2.5t3.5 1.5q23 14 40.5 26t28.5 23q2 -2 6 -6.5t7 -10t4.5 -10.5t-0.5 -7q-11 -11 -27 -22.5t-34 -22.5q-9 -6 -21 -12t-26 -11q-14 -45 -23 -85.5t-10 -75.5q-4 0 -9.5 3t-11 7t-9.5 8t-4 6
q3 56 23 127q-23 -4 -43 1t-34 23q-12 14 -9 41.5t17 60.5t36.5 67.5t49.5 64.5t57 51t58 27l37 74q1 2 5.5 -1t10.5 -7.5t11.5 -9t7.5 -5.5q-4 -7 -8 -15t-9 -17.5t-11 -22.5q24 -11 41 -39q6 -13 4 -32.5t-16 -45.5q-2 1 -7 3t-10 5t-7.5 7t-0.5 8zM205 461
q-59 -44 -92.5 -92.5t-60.5 -103.5q-10 -20 -13.5 -37t1.5 -27t20.5 -10t43.5 14q20 68 46 129t55 127z" />
    <glyph glyph-name="sterling" unicode="&#xa3;" horiz-adv-x="356" 
d="M66 333q24 7 48 10.5t44 5.5l26 71q13 36 26 61.5t26 44.5q17 26 32.5 38.5t27.5 17.5q16 8 32.5 6.5t29.5 -11t20 -26t5 -37.5q-1 -15 -5 -30t-9.5 -27.5t-13 -22.5t-15.5 -14q-2 4 -6.5 8.5l-9 9t-7 8.5t0.5 7q17 21 24.5 50t3.5 46.5t-22 11.5t-52 -55
q-12 -18 -25 -44t-26 -61q-11 -27 -18 -51q13 0 22.5 -1t16.5 -2l5 -2.5t10 -6.5t8.5 -9t2.5 -9q-4 1 -13 2q-8 1 -22.5 0.5t-40.5 -1.5l-3 -11q-12 -37 -22.5 -65.5t-24.5 -54.5q11 -5 14.5 -19.5t6 -30t6.5 -28t16.5 -13.5t37 14t67.5 54q1 1 5.5 -2t9 -7.5t9 -9.5t6.5 -8
q-19 -15 -37 -29.5t-40 -24.5q-17 -8 -37 -7.5t-37 8t-29 23t-13 39.5q0 10 -1 14q-13 -29 -38 -58t-60 -46q-5 -2 -15 0t-20 6t-17.5 10t-6.5 13q3 17 17.5 41.5t35 45.5t42.5 32t40 1q14 24 23.5 51t21.5 60q-23 -2 -35.5 -5t-20.5 -5q-9 -3 -12 -6q-3 -2 -7.5 2t-7.5 9.5
t-4 11t4 7.5zM44 149q-22 -29 -26.5 -41.5t2 -12.5t20.5 10t30 27q22 24 24.5 35t-5 11.5t-21 -7.5t-24.5 -22z" />
    <glyph glyph-name="yen" unicode="&#xa5;" horiz-adv-x="440" 
d="M192 369q23 35 43 62.5t40.5 52t42.5 48.5t48 54q9 10 21.5 12.5t22 -0.5t12.5 -10t-7 -14q-13 -9 -34.5 -30.5t-48 -52.5t-55.5 -70.5t-57 -84.5l-6 -10q40 2 75 2t58 -4q10 -1 21.5 -14t8.5 -23q-9 2 -29 2.5t-46 0.5t-55.5 -1.5t-58.5 -4.5l-12 -18t-11 -18q41 6 76 3
l4.5 -4t9.5 -9t8.5 -11.5t2.5 -11.5q-11 2 -29 2q-15 0 -39 -2.5t-58 -7.5q-41 -70 -61 -128q-5 -15 9 -27q-6 -7 -13.5 -4t-14.5 10.5t-11.5 16.5t-2.5 13q5 22 17 50t27 58q-14 -5 -20.5 -8t-9.5 -6q-4 -4 -3 -6q-3 -2 -8.5 2t-10 10.5t-6.5 13.5t3 12q6 6 16.5 10.5
t22.5 7.5t23 5.5t17 3.5q5 9 10.5 18.5t10.5 17.5q-20 -3 -37 -7t-28.5 -8.5t-16.5 -10t-1 -12.5q-3 -2 -11 3.5t-13.5 14.5t-3 19.5t20.5 19.5q19 9 50 15t68 11l3 6q-27 -5 -48.5 2.5t-35 23t-18.5 39t0 50.5q5 26 15 53t20.5 51t19.5 41.5t13 24.5q2 4 9.5 -0.5t14 -12
t9.5 -16t-5 -12.5q-1 2 -2 3q-3 3 -5 -1q-7 -13 -16.5 -33t-18.5 -43.5t-16.5 -47.5t-9.5 -46q-3 -27 6 -39t24 -13.5t34 4t36 13.5z" />
    <glyph glyph-name="plusminus" unicode="&#xb1;" horiz-adv-x="410" 
d="M153 178q-5 -1 -11.5 1t-12.5 5t-10 6t-3 5q11 20 20.5 40t18.5 40q-17 0 -34.5 -0.5t-34.5 -1.5q-2 0 -6.5 5t-9.5 11.5t-9 14t-4 11.5q28 2 55.5 3t54.5 1h7q8 21 15.5 42.5t14.5 42.5q6 2 13 0t13 -5t10 -6t4 -4l-27 -72q15 -2 29.5 -3t29.5 -2q1 0 5.5 -5.5t10 -12
t9 -14t3.5 -12.5q-26 3 -52 4.5t-52 2.5q-11 -23 -22 -47.5t-25 -49.5zM3 142q28 2 55.5 3t54.5 1q28 -1 55 -3l54 -4q1 0 5.5 -5.5t10 -12t9 -14t3.5 -12.5q-112 12 -218 5q-2 0 -6.5 5t-9.5 11.5t-9 14t-4 11.5z" />
    <glyph glyph-name="multiply" unicode="&#xd7;" horiz-adv-x="389" 
d="M32 206q40 48 92 82l-45 35q-3 2 -0.5 14.5t6.5 20.5q15 -11 31.5 -23.5t33.5 -26.5q26 17 54 30.5t58 27.5q1 0 5 -2.5t9 -7t10 -9.5t8 -9q-25 -11 -53 -26t-56 -34q17 -15 33 -30t30 -29q2 -2 1 -14t-7 -20q-40 40 -82 76q-50 -35 -92 -79q-1 -2 -5.5 0.5t-10 6.5
t-11.5 9t-9 8z" />
    <glyph glyph-name="divide" unicode="&#xf7;" horiz-adv-x="394" 
d="M47 277q31 2 61.5 2.5t59.5 -0.5q32 -1 62 -2t60 -4q1 0 6 -5t11 -11.5t10 -14t4 -11.5q-61 6 -121.5 7.5t-120.5 -3.5q-2 0 -7.5 5t-11 11.5t-9.5 13.5t-4 12zM171 336q2 8 12.5 21.5t16.5 20.5q2 2 9.5 -0.5t16.5 -7t16.5 -9t9.5 -5.5q-10 -9 -17 -17q-6 -7 -10 -14.5
t-2 -11.5q-3 -5 -11.5 -2t-17.5 8t-16 10.5t-7 6.5zM133 183q2 8 11.5 21t16.5 20q2 2 10 -0.5t16.5 -7t16.5 -9t10 -5.5l-5.5 -5.5t-11.5 -12.5t-10.5 -14t-2.5 -10q-3 -5 -11.5 -2t-17.5 8t-16 10.5t-6 6.5z" />
    <glyph glyph-name="quoteleft" unicode="&#x2018;" horiz-adv-x="289" 
d="M223 742q-23 -22 -30 -48t-11 -53q0 -2 -5.5 -1t-13 3t-14 4t-8.5 2q-2 -3 -1 7t5 25t10.5 31.5t16.5 27.5t22.5 13.5t28.5 -11.5z" />
    <glyph glyph-name="quoteright" unicode="&#x2019;" horiz-adv-x="289" 
d="M133 640q23 22 30 48t11 53q0 2 5.5 1t13 -3t14 -4t8.5 -2q2 2 1 -7.5t-5 -24.5t-10.5 -31.5t-16.5 -27.5t-22.5 -13.5t-28.5 11.5z" />
    <glyph glyph-name="quotedblleft" unicode="&#x201c;" 
d="M293 740q-23 -22 -30 -48t-11 -53q0 -2 -5.5 -1t-13 3t-14 4t-8.5 2q-2 -3 -1 7t5 25t10.5 31.5t16.5 27.5t22.5 13.5t28.5 -11.5zM223 740q-23 -22 -30 -48t-11 -53q0 -2 -5.5 -1t-13 3t-14 4t-8.5 2q-2 -3 -1 7t5 25t10.5 31.5t16.5 27.5t22.5 13.5t28.5 -11.5z" />
    <glyph glyph-name="quotedblright" unicode="&#x201d;" 
d="M133 640q23 22 30 48t11 53q0 2 5.5 1t13 -3t14 -4t8.5 -2q2 2 1 -7.5t-5 -24.5t-10.5 -31.5t-16.5 -27.5t-22.5 -13.5t-28.5 11.5zM203 640q23 22 30 48t11 53q0 2 5.5 1t13 -3t14 -4t8.5 -2q2 2 1 -7.5t-5 -24.5t-10.5 -31.5t-16.5 -27.5t-22.5 -13.5t-28.5 11.5z" />
    <glyph glyph-name="Euro" unicode="&#x20ac;" horiz-adv-x="544" 
d="M488 428q25 57 23 85.5t-20.5 36t-49.5 -3t-65 -30.5t-65.5 -47t-51.5 -52q-8 -12 -16 -22q48 2 86 1t54 -8q13 -13 21 -23q6 -8 7.5 -13t-9.5 0q-10 4 -29 5.5t-44.5 1.5t-54.5 -1.5t-59 -3.5l-19 -33q30 5 64.5 8.5t73.5 7.5q1 0 6 -4t10 -9.5t9.5 -11.5t4.5 -10
q-48 -5 -95.5 -10.5t-95.5 -13.5q-8 -17 -15.5 -33t-13.5 -33q-25 -69 -22.5 -104.5t25 -45t61 3.5t85.5 42q36 23 66 47t45 43q4 -3 10 -8.5t10.5 -12t7 -12.5t-1.5 -10q-17 -17 -41.5 -35.5t-51.5 -35.5q-26 -15 -60.5 -29.5t-69.5 -18.5t-67 5.5t-52 42.5
q-19 30 -11.5 78.5t33.5 105.5q-26 -5 -44 -9.5l-26 -6.5q-3 -1 -8 2t-10 8.5t-10 11.5t-6 11q14 4 33 8q16 4 39.5 9t54.5 10l22 37q-30 -3 -61 -8.5t-49 -13.5q-2 2 -7 7.5t-9.5 11.5t-7.5 11t0 7q4 3 19 7t37 7.5t49.5 6.5t57.5 6q29 41 63 77.5t69 64t69.5 44t65.5 16.5
t56 -17.5t42 -58.5q8 -22 3 -54.5t-28 -77.5q-4 2 -11 6t-13.5 10t-10.5 13t-1 14z" />
    </font>
</defs>
</svg>
